<?xml version="1.0" encoding="UTF-8"?>
<!--Generator: Apple Native CoreSVG 149-->
<!DOCTYPE svg
PUBLIC "-//W3C//DTD SVG 1.1//EN"
       "http://www.w3.org/Graphics/SVG/1.1/DTD/svg11.dtd">
<svg version="1.1" xmlns="http://www.w3.org/2000/svg" xmlns:xlink="http://www.w3.org/1999/xlink" width="3300" height="2200">
 <!--glyph: "uni1002D2.medium", point size: 100.0, font version: "17.0d9e1", template writer version: "59"-->
 <g id="Notes">
  <rect height="2200" id="artboard" style="fill:white;opacity:1" width="3300" x="0" y="0"/>
  <line style="fill:none;stroke:black;opacity:1;stroke-width:0.5;" x1="263" x2="3036" y1="292" y2="292"/>
  <text style="stroke:none;fill:black;font-family:sans-serif;font-size:13;font-weight:bold;" transform="matrix(1 0 0 1 263 322)">Weight/Scale Variations</text>
  <text style="stroke:none;fill:black;font-family:sans-serif;font-size:13;text-anchor:middle;" transform="matrix(1 0 0 1 559.711 322)">Ultralight</text>
  <text style="stroke:none;fill:black;font-family:sans-serif;font-size:13;text-anchor:middle;" transform="matrix(1 0 0 1 856.422 322)">Thin</text>
  <text style="stroke:none;fill:black;font-family:sans-serif;font-size:13;text-anchor:middle;" transform="matrix(1 0 0 1 1153.13 322)">Light</text>
  <text style="stroke:none;fill:black;font-family:sans-serif;font-size:13;text-anchor:middle;" transform="matrix(1 0 0 1 1449.84 322)">Regular</text>
  <text style="stroke:none;fill:black;font-family:sans-serif;font-size:13;text-anchor:middle;" transform="matrix(1 0 0 1 1746.56 322)">Medium</text>
  <text style="stroke:none;fill:black;font-family:sans-serif;font-size:13;text-anchor:middle;" transform="matrix(1 0 0 1 2043.27 322)">Semibold</text>
  <text style="stroke:none;fill:black;font-family:sans-serif;font-size:13;text-anchor:middle;" transform="matrix(1 0 0 1 2339.98 322)">Bold</text>
  <text style="stroke:none;fill:black;font-family:sans-serif;font-size:13;text-anchor:middle;" transform="matrix(1 0 0 1 2636.69 322)">Heavy</text>
  <text style="stroke:none;fill:black;font-family:sans-serif;font-size:13;text-anchor:middle;" transform="matrix(1 0 0 1 2933.4 322)">Black</text>
  <line style="fill:none;stroke:black;opacity:1;stroke-width:0.5;" x1="263" x2="3036" y1="1903" y2="1903"/>
  <g transform="matrix(1 0 0 1 263 1933)">
   <path d="M9.24805 0.830078Q10.8691 0.830078 12.2949 0.214844Q13.7207-0.400391 14.8096-1.49414Q15.8984-2.58789 16.5186-4.01367Q17.1387-5.43945 17.1387-7.05078Q17.1387-8.66211 16.5186-10.0879Q15.8984-11.5137 14.8047-12.6074Q13.7109-13.7012 12.2852-14.3164Q10.8594-14.9316 9.23828-14.9316Q7.62695-14.9316 6.20117-14.3164Q4.77539-13.7012 3.69141-12.6074Q2.60742-11.5137 1.9873-10.0879Q1.36719-8.66211 1.36719-7.05078Q1.36719-5.43945 1.9873-4.01367Q2.60742-2.58789 3.69629-1.49414Q4.78516-0.400391 6.21094 0.214844Q7.63672 0.830078 9.24805 0.830078ZM9.24805-0.654297Q7.91992-0.654297 6.7627-1.14746Q5.60547-1.64062 4.73145-2.51953Q3.85742-3.39844 3.36426-4.56055Q2.87109-5.72266 2.87109-7.05078Q2.87109-8.37891 3.35938-9.54102Q3.84766-10.7031 4.72168-11.582Q5.5957-12.4609 6.75293-12.9541Q7.91016-13.4473 9.23828-13.4473Q10.5762-13.4473 11.7334-12.9541Q12.8906-12.4609 13.7695-11.582Q14.6484-10.7031 15.1465-9.54102Q15.6445-8.37891 15.6445-7.05078Q15.6445-5.72266 15.1514-4.56055Q14.6582-3.39844 13.7842-2.51953Q12.9102-1.64062 11.748-1.14746Q10.5859-0.654297 9.24805-0.654297ZM5.83984-7.04102Q5.83984-6.71875 6.04492-6.51855Q6.25-6.31836 6.5918-6.31836L8.50586-6.31836L8.50586-4.39453Q8.50586-4.0625 8.70605-3.85742Q8.90625-3.65234 9.22852-3.65234Q9.56055-3.65234 9.76562-3.85742Q9.9707-4.0625 9.9707-4.39453L9.9707-6.31836L11.8945-6.31836Q12.2266-6.31836 12.4316-6.51855Q12.6367-6.71875 12.6367-7.04102Q12.6367-7.37305 12.4316-7.57812Q12.2266-7.7832 11.8945-7.7832L9.9707-7.7832L9.9707-9.69727Q9.9707-10.0391 9.76562-10.2441Q9.56055-10.4492 9.22852-10.4492Q8.90625-10.4492 8.70605-10.2441Q8.50586-10.0391 8.50586-9.69727L8.50586-7.7832L6.5918-7.7832Q6.25-7.7832 6.04492-7.57812Q5.83984-7.37305 5.83984-7.04102Z"/>
  </g>
  <g transform="matrix(1 0 0 1 281.867 1933)">
   <path d="M11.709 2.91016Q13.75 2.91016 15.5518 2.12891Q17.3535 1.34766 18.7305-0.0292969Q20.1074-1.40625 20.8887-3.20801Q21.6699-5.00977 21.6699-7.05078Q21.6699-9.0918 20.8887-10.8936Q20.1074-12.6953 18.7305-14.0723Q17.3535-15.4492 15.5469-16.2305Q13.7402-17.0117 11.6992-17.0117Q9.6582-17.0117 7.85645-16.2305Q6.05469-15.4492 4.68262-14.0723Q3.31055-12.6953 2.5293-10.8936Q1.74805-9.0918 1.74805-7.05078Q1.74805-5.00977 2.5293-3.20801Q3.31055-1.40625 4.6875-0.0292969Q6.06445 1.34766 7.86621 2.12891Q9.66797 2.91016 11.709 2.91016ZM11.709 1.25Q9.98047 1.25 8.47656 0.605469Q6.97266-0.0390625 5.83496-1.17676Q4.69727-2.31445 4.05762-3.81836Q3.41797-5.32227 3.41797-7.05078Q3.41797-8.7793 4.05762-10.2832Q4.69727-11.7871 5.83008-12.9297Q6.96289-14.0723 8.4668-14.7119Q9.9707-15.3516 11.6992-15.3516Q13.4277-15.3516 14.9316-14.7119Q16.4355-14.0723 17.5781-12.9297Q18.7207-11.7871 19.3652-10.2832Q20.0098-8.7793 20.0098-7.05078Q20.0098-5.32227 19.3701-3.81836Q18.7305-2.31445 17.5928-1.17676Q16.4551-0.0390625 14.9463 0.605469Q13.4375 1.25 11.709 1.25ZM7.39258-7.04102Q7.39258-6.68945 7.62695-6.46484Q7.86133-6.24023 8.23242-6.24023L10.8789-6.24023L10.8789-3.57422Q10.8789-3.21289 11.1035-2.9834Q11.3281-2.75391 11.6797-2.75391Q12.0508-2.75391 12.2852-2.9834Q12.5195-3.21289 12.5195-3.57422L12.5195-6.24023L15.1758-6.24023Q15.5371-6.24023 15.7715-6.46484Q16.0059-6.68945 16.0059-7.04102Q16.0059-7.41211 15.7715-7.6416Q15.5371-7.87109 15.1758-7.87109L12.5195-7.87109L12.5195-10.5176Q12.5195-10.8984 12.2852-11.1279Q12.0508-11.3574 11.6797-11.3574Q11.3281-11.3574 11.1035-11.1279Q10.8789-10.8984 10.8789-10.5176L10.8789-7.87109L8.23242-7.87109Q7.85156-7.87109 7.62207-7.6416Q7.39258-7.41211 7.39258-7.04102Z"/>
  </g>
  <g transform="matrix(1 0 0 1 305.646 1933)">
   <path d="M14.9707 5.66406Q17.0605 5.66406 18.96 5.01465Q20.8594 4.36523 22.4512 3.19336Q24.043 2.02148 25.2197 0.429688Q26.3965-1.16211 27.0459-3.06641Q27.6953-4.9707 27.6953-7.05078Q27.6953-9.14062 27.0459-11.04Q26.3965-12.9395 25.2197-14.5312Q24.043-16.123 22.4512-17.2998Q20.8594-18.4766 18.9551-19.126Q17.0508-19.7754 14.9609-19.7754Q12.8711-19.7754 10.9717-19.126Q9.07227-18.4766 7.48535-17.2998Q5.89844-16.123 4.72168-14.5312Q3.54492-12.9395 2.90039-11.04Q2.25586-9.14062 2.25586-7.05078Q2.25586-4.9707 2.90527-3.06641Q3.55469-1.16211 4.72656 0.429688Q5.89844 2.02148 7.49023 3.19336Q9.08203 4.36523 10.9814 5.01465Q12.8809 5.66406 14.9707 5.66406ZM14.9707 3.84766Q13.1641 3.84766 11.5283 3.2959Q9.89258 2.74414 8.53516 1.74805Q7.17773 0.751953 6.17676-0.610352Q5.17578-1.97266 4.62891-3.6084Q4.08203-5.24414 4.08203-7.05078Q4.08203-8.86719 4.62891-10.5029Q5.17578-12.1387 6.17188-13.501Q7.16797-14.8633 8.52539-15.8594Q9.88281-16.8555 11.5186-17.4023Q13.1543-17.9492 14.9609-17.9492Q16.7773-17.9492 18.4131-17.4023Q20.0488-16.8555 21.4111-15.8594Q22.7734-14.8633 23.7695-13.501Q24.7656-12.1387 25.3174-10.5029Q25.8691-8.86719 25.8691-7.05078Q25.8789-5.24414 25.332-3.6084Q24.7852-1.97266 23.7842-0.610352Q22.7832 0.751953 21.4209 1.74805Q20.0586 2.74414 18.4229 3.2959Q16.7871 3.84766 14.9707 3.84766ZM9.45312-7.04102Q9.45312-6.66016 9.71191-6.41113Q9.9707-6.16211 10.3711-6.16211L14.0625-6.16211L14.0625-2.46094Q14.0625-2.06055 14.3115-1.80664Q14.5605-1.55273 14.9414-1.55273Q15.3516-1.55273 15.6055-1.80664Q15.8594-2.06055 15.8594-2.46094L15.8594-6.16211L19.5605-6.16211Q19.9609-6.16211 20.2148-6.41113Q20.4688-6.66016 20.4688-7.04102Q20.4688-7.45117 20.2148-7.70508Q19.9609-7.95898 19.5605-7.95898L15.8594-7.95898L15.8594-11.6504Q15.8594-12.0605 15.6055-12.3145Q15.3516-12.5684 14.9414-12.5684Q14.5605-12.5684 14.3115-12.3096Q14.0625-12.0508 14.0625-11.6504L14.0625-7.95898L10.3711-7.95898Q9.96094-7.95898 9.70703-7.70508Q9.45312-7.45117 9.45312-7.04102Z"/>
  </g>
  <text style="stroke:none;fill:black;font-family:sans-serif;font-size:13;font-weight:bold;" transform="matrix(1 0 0 1 263 1953)">Design Variations</text>
  <text style="stroke:none;fill:black;font-family:sans-serif;font-size:13;" transform="matrix(1 0 0 1 263 1971)">Symbols are supported in up to nine weights and three scales.</text>
  <text style="stroke:none;fill:black;font-family:sans-serif;font-size:13;" transform="matrix(1 0 0 1 263 1989)">For optimal layout with text and other symbols, vertically align</text>
  <text style="stroke:none;fill:black;font-family:sans-serif;font-size:13;" transform="matrix(1 0 0 1 263 2007)">symbols with the adjacent text.</text>
  <line style="fill:none;stroke:#00AEEF;stroke-width:0.5;opacity:1.0;" x1="776" x2="776" y1="1919" y2="1933"/>
  <g transform="matrix(1 0 0 1 776 1933)">
   <path d="M3.31055 0.15625Q3.70117 0.15625 3.91602-0.00976562Q4.13086-0.175781 4.26758-0.585938L5.52734-4.0332L11.2891-4.0332L12.5488-0.585938Q12.6855-0.175781 12.9004-0.00976562Q13.1152 0.15625 13.4961 0.15625Q13.8867 0.15625 14.1162-0.0585938Q14.3457-0.273438 14.3457-0.644531Q14.3457-0.869141 14.2383-1.17188L9.6582-13.3691Q9.48242-13.8184 9.17969-14.043Q8.87695-14.2676 8.4082-14.2676Q7.5-14.2676 7.17773-13.3789L2.59766-1.16211Q2.49023-0.859375 2.49023-0.634766Q2.49023-0.263672 2.70996-0.0537109Q2.92969 0.15625 3.31055 0.15625ZM6.00586-5.51758L8.37891-12.0898L8.42773-12.0898L10.8008-5.51758Z"/>
  </g>
  <line style="fill:none;stroke:#00AEEF;stroke-width:0.5;opacity:1.0;" x1="793.197" x2="793.197" y1="1919" y2="1933"/>
  <text style="stroke:none;fill:black;font-family:sans-serif;font-size:13;font-weight:bold;" transform="matrix(1 0 0 1 776 1953)">Margins</text>
  <text style="stroke:none;fill:black;font-family:sans-serif;font-size:13;" transform="matrix(1 0 0 1 776 1971)">Leading and trailing margins on the left and right side of each symbol</text>
  <text style="stroke:none;fill:black;font-family:sans-serif;font-size:13;" transform="matrix(1 0 0 1 776 1989)">can be adjusted by modifying the x-location of the margin guidelines.</text>
  <text style="stroke:none;fill:black;font-family:sans-serif;font-size:13;" transform="matrix(1 0 0 1 776 2007)">Modifications are automatically applied proportionally to all</text>
  <text style="stroke:none;fill:black;font-family:sans-serif;font-size:13;" transform="matrix(1 0 0 1 776 2025)">scales and weights.</text>
  <g transform="matrix(1 0 0 1 1289 1933)">
   <path d="M2.8418 1.86523L4.54102 3.57422Q5.18555 4.22852 5.90332 4.17969Q6.62109 4.13086 7.31445 3.35938L18.0078-8.42773L17.041-9.4043L6.42578 2.27539Q6.16211 2.57812 5.89355 2.61719Q5.625 2.65625 5.27344 2.30469L4.10156 1.14258Q3.75 0.791016 3.79395 0.522461Q3.83789 0.253906 4.14062-0.0195312L15.6152-10.8203L14.6387-11.7871L3.04688-0.898438Q2.30469-0.214844 2.25098 0.498047Q2.19727 1.21094 2.8418 1.86523ZM9.25781-16.3281Q8.94531-16.0254 8.90625-15.6348Q8.86719-15.2441 9.04297-14.9512Q9.21875-14.6777 9.55566-14.541Q9.89258-14.4043 10.3809-14.5215Q11.4746-14.7754 12.5977-14.7314Q13.7207-14.6875 14.7949-13.9844L14.209-12.5293Q13.9551-11.9043 14.0674-11.4404Q14.1797-10.9766 14.5801-10.5664L16.875-8.25195Q17.2363-7.88086 17.5781-7.82227Q17.9199-7.76367 18.3398-7.8418L19.4043-8.03711L20.0684-7.36328L20.0293-6.80664Q20-6.43555 20.1221-6.12305Q20.2441-5.81055 20.6055-5.44922L21.3672-4.70703Q21.7285-4.3457 22.1533-4.33105Q22.5781-4.31641 22.9297-4.66797L25.8398-7.58789Q26.1914-7.93945 26.1816-8.35449Q26.1719-8.76953 25.8105-9.13086L25.0391-9.89258Q24.6875-10.2539 24.3799-10.3857Q24.0723-10.5176 23.7109-10.4883L23.1348-10.4395L22.4902-11.0742L22.7344-12.1973Q22.832-12.6172 22.6953-12.9834Q22.5586-13.3496 22.1191-13.7891L19.9219-15.9766Q18.6719-17.2168 17.2607-17.8369Q15.8496-18.457 14.4189-18.4814Q12.9883-18.5059 11.665-17.959Q10.3418-17.4121 9.25781-16.3281ZM10.752-15.957Q11.6602-16.6211 12.7002-16.9043Q13.7402-17.1875 14.8047-17.085Q15.8691-16.9824 16.8701-16.5137Q17.8711-16.0449 18.7012-15.2051L21.1328-12.793Q21.3086-12.6172 21.3525-12.4512Q21.3965-12.2852 21.3379-12.0312L21.0156-10.5469L22.5195-9.0625L23.5059-9.12109Q23.6914-9.13086 23.7891-9.09668Q23.8867-9.0625 24.0332-8.91602L24.6094-8.33984L22.168-5.89844L21.5918-6.47461Q21.4453-6.62109 21.4062-6.71875Q21.3672-6.81641 21.377-7.01172L21.4453-7.98828L19.9512-9.47266L18.4277-9.21875Q18.1836-9.16992 18.042-9.2041Q17.9004-9.23828 17.7148-9.41406L15.7129-11.416Q15.5176-11.5918 15.4932-11.7529Q15.4688-11.9141 15.5859-12.1875L16.4648-14.2773Q15.293-15.3711 13.8281-15.791Q12.3633-16.2109 10.8398-15.7617Q10.7227-15.7324 10.6885-15.8057Q10.6543-15.8789 10.752-15.957Z"/>
  </g>
  <text style="stroke:none;fill:black;font-family:sans-serif;font-size:13;font-weight:bold;" transform="matrix(1 0 0 1 1289 1953)">Exporting</text>
  <text style="stroke:none;fill:black;font-family:sans-serif;font-size:13;" transform="matrix(1 0 0 1 1289 1971)">Symbols should be outlined when exporting to ensure the</text>
  <text style="stroke:none;fill:black;font-family:sans-serif;font-size:13;" transform="matrix(1 0 0 1 1289 1989)">design is preserved when submitting to Xcode.</text>
  <text id="template-version" style="stroke:none;fill:black;font-family:sans-serif;font-size:13;text-anchor:end;" transform="matrix(1 0 0 1 3036 1933)">Template v.2.0</text>
  <text style="stroke:none;fill:black;font-family:sans-serif;font-size:13;text-anchor:end;" transform="matrix(1 0 0 1 3036 1951)">Requires Xcode 13 or greater</text>
  <text id="descriptive-name" style="stroke:none;fill:black;font-family:sans-serif;font-size:13;text-anchor:end;" transform="matrix(1 0 0 1 3036 1969)">Generated from location.fill</text>
  <text style="stroke:none;fill:black;font-family:sans-serif;font-size:13;text-anchor:end;" transform="matrix(1 0 0 1 3036 1987)">Typeset at 100 points</text>
  <text style="stroke:none;fill:black;font-family:sans-serif;font-size:13;" transform="matrix(1 0 0 1 263 726)">Small</text>
  <text style="stroke:none;fill:black;font-family:sans-serif;font-size:13;" transform="matrix(1 0 0 1 263 1156)">Medium</text>
  <text style="stroke:none;fill:black;font-family:sans-serif;font-size:13;" transform="matrix(1 0 0 1 263 1586)">Large</text>
 </g>
 <g id="Guides">
  <g id="H-reference" style="fill:#27AAE1;stroke:none;" transform="matrix(1 0 0 1 339 696)">
   <path d="M0.976562 0L3.66211 0L29.3457-67.1387L30.0293-67.1387L30.0293-70.459L28.125-70.459ZM11.6699-24.4629L46.9727-24.4629L46.2402-26.709L12.4512-26.709ZM55.127 0L57.7637 0L30.6152-70.459L29.4434-70.459L29.4434-67.1387Z"/>
  </g>
  <line id="Baseline-S" style="fill:none;stroke:#27AAE1;opacity:1;stroke-width:0.5;" x1="263" x2="3036" y1="696" y2="696"/>
  <line id="Capline-S" style="fill:none;stroke:#27AAE1;opacity:1;stroke-width:0.5;" x1="263" x2="3036" y1="625.541" y2="625.541"/>
  <g id="H-reference" style="fill:#27AAE1;stroke:none;" transform="matrix(1 0 0 1 339 1126)">
   <path d="M0.976562 0L3.66211 0L29.3457-67.1387L30.0293-67.1387L30.0293-70.459L28.125-70.459ZM11.6699-24.4629L46.9727-24.4629L46.2402-26.709L12.4512-26.709ZM55.127 0L57.7637 0L30.6152-70.459L29.4434-70.459L29.4434-67.1387Z"/>
  </g>
  <line id="Baseline-M" style="fill:none;stroke:#27AAE1;opacity:1;stroke-width:0.5;" x1="263" x2="3036" y1="1126" y2="1126"/>
  <line id="Capline-M" style="fill:none;stroke:#27AAE1;opacity:1;stroke-width:0.5;" x1="263" x2="3036" y1="1055.54" y2="1055.54"/>
  <g id="H-reference" style="fill:#27AAE1;stroke:none;" transform="matrix(1 0 0 1 339 1556)">
   <path d="M0.976562 0L3.66211 0L29.3457-67.1387L30.0293-67.1387L30.0293-70.459L28.125-70.459ZM11.6699-24.4629L46.9727-24.4629L46.2402-26.709L12.4512-26.709ZM55.127 0L57.7637 0L30.6152-70.459L29.4434-70.459L29.4434-67.1387Z"/>
  </g>
  <line id="Baseline-L" style="fill:none;stroke:#27AAE1;opacity:1;stroke-width:0.5;" x1="263" x2="3036" y1="1556" y2="1556"/>
  <line id="Capline-L" style="fill:none;stroke:#27AAE1;opacity:1;stroke-width:0.5;" x1="263" x2="3036" y1="1485.54" y2="1485.54"/>
  <line id="left-margin" style="fill:none;stroke:#00AEEF;stroke-width:0.5;opacity:1.0;" x1="1391.84" x2="1391.84" y1="1030.79" y2="1150.12"/>
  <line id="right-margin" style="fill:none;stroke:#00AEEF;stroke-width:0.5;opacity:1.0;" x1="1507.85" x2="1507.85" y1="1030.79" y2="1150.12"/>
 </g>
 <g id="Symbols">
  <g id="Black-L" transform="matrix(1 0 0 1 2850.9 1556)">
   <path d="M24.9512-25.6348L68.7988-25.5371Q69.1895-25.5371 69.165-25.6592Q69.1406-25.7812 69.1406-25.2441L69.1895 18.5059Q69.1895 23.1934 71.3135 26.3184Q73.4375 29.4434 76.7822 30.9082Q80.127 32.373 83.8867 32.0068Q87.6465 31.6406 90.9668 29.3457Q94.2871 27.0508 96.2891 22.6074L141.943-77.7832Q144.678-83.7891 144.067-88.7207Q143.457-93.6523 140.283-96.7529Q137.109-99.8535 132.129-100.415Q127.148-100.977 121.191-98.291L20.6055-52.5879Q16.3086-50.6348 14.0381-47.3389Q11.7676-44.043 11.4258-40.3076Q11.084-36.5723 12.5488-33.2275Q14.0137-29.8828 17.1387-27.7588Q20.2637-25.6348 24.9512-25.6348Z"/>
  </g>
  <g id="Heavy-L" transform="matrix(1 0 0 1 2556.1 1556)">
   <path d="M23.3398-27.1484L68.1152-27.002Q68.5547-27.002 68.6035-27.0508Q68.6523-27.0996 68.6523-26.5137L68.7012 18.1152Q68.7012 22.2656 70.5811 25.0488Q72.4609 27.832 75.3906 29.126Q78.3203 30.4199 81.6406 30.1025Q84.9609 29.7852 87.8906 27.7344Q90.8203 25.6836 92.627 21.7773L138.721-79.0039Q141.162-84.3262 140.625-88.6719Q140.088-93.0176 137.256-95.7275Q134.424-98.4375 130.029-98.9258Q125.635-99.4141 120.41-97.0215L19.3848-50.8789Q15.5762-49.1211 13.5742-46.2158Q11.5723-43.3105 11.2793-40.0391Q10.9863-36.7676 12.3047-33.8379Q13.623-30.9082 16.3818-29.0283Q19.1406-27.1484 23.3398-27.1484Z"/>
  </g>
  <g id="Bold-L" transform="matrix(1 0 0 1 2261.54 1556)">
   <path d="M21.5332-28.8574L67.334-28.7109Q67.8711-28.7109 67.9688-28.6377Q68.0664-28.5645 68.0664-27.9785L68.1641 17.627Q68.1641 21.2402 69.751 23.6328Q71.3379 26.0254 73.8281 27.1484Q76.3184 28.2715 79.1504 28.0029Q81.9824 27.7344 84.4727 25.9766Q86.9629 24.2188 88.5254 20.8008L135.156-80.4199Q137.256-84.9609 136.768-88.6475Q136.279-92.334 133.887-94.6045Q131.494-96.875 127.734-97.2656Q123.975-97.6562 119.58-95.6543L17.9688-48.9258Q14.7461-47.4609 13.0615-44.9951Q11.377-42.5293 11.1328-39.7705Q10.8887-37.0117 12.0117-34.5215Q13.1348-32.0312 15.5273-30.4443Q17.9199-28.8574 21.5332-28.8574Z"/>
  </g>
  <g id="Semibold-L" transform="matrix(1 0 0 1 1966.29 1556)">
   <path d="M20.3125-29.9805L66.7969-29.834Q67.334-29.834 67.5049-29.6875Q67.6758-29.541 67.6758-28.9551L67.7734 17.2852Q67.7734 20.5078 69.165 22.6318Q70.5566 24.7559 72.7539 25.7568Q74.9512 26.7578 77.417 26.5137Q79.8828 26.2695 82.0801 24.707Q84.2773 23.1445 85.6934 20.166L132.666-81.3965Q134.521-85.4004 134.082-88.5986Q133.643-91.7969 131.519-93.7988Q129.395-95.8008 126.099-96.1182Q122.803-96.4355 118.945-94.6777L16.9922-47.6074Q14.1602-46.2891 12.6953-44.1406Q11.2305-41.9922 11.0352-39.5752Q10.8398-37.1582 11.8164-34.9609Q12.793-32.7637 14.9414-31.3721Q17.0898-29.9805 20.3125-29.9805Z"/>
  </g>
  <g id="Medium-L" transform="matrix(1 0 0 1 1670.7 1556)">
   <path d="M19.3359-30.8594L66.4062-30.7129Q66.9922-30.7129 67.1875-30.5176Q67.3828-30.3223 67.3828-29.6875L67.5293 17.041Q67.5293 19.9707 68.75 21.875Q69.9707 23.7793 71.9238 24.6826Q73.877 25.5859 76.0986 25.3906Q78.3203 25.1953 80.2979 23.7793Q82.2754 22.3633 83.5449 19.6289L130.811-82.1289Q132.471-85.6934 132.08-88.5742Q131.689-91.4551 129.785-93.2129Q127.881-94.9707 124.902-95.2393Q121.924-95.5078 118.506-93.9453L16.2598-46.582Q13.7695-45.4102 12.4512-43.4814Q11.1328-41.5527 10.9375-39.4043Q10.7422-37.2559 11.6455-35.3027Q12.5488-33.3496 14.4775-32.1045Q16.4062-30.8594 19.3359-30.8594Z"/>
  </g>
  <g id="Regular-L" transform="matrix(1 0 0 1 1375.45 1556)">
   <path d="M18.1152-32.0312L65.8691-31.8359Q66.5039-31.8359 66.748-31.5674Q66.9922-31.2988 66.9922-30.6641L67.1387 16.748Q67.1387 19.2383 68.1885 20.8984Q69.2383 22.5586 70.874 23.3398Q72.5098 24.1211 74.3896 23.9502Q76.2695 23.7793 77.9541 22.5586Q79.6387 21.3379 80.7617 18.9941L128.369-83.0566Q129.785-86.1328 129.443-88.5498Q129.102-90.9668 127.466-92.4316Q125.83-93.8965 123.315-94.1162Q120.801-94.3359 117.92-92.9688L15.332-45.2637Q13.1836-44.2871 12.085-42.6514Q10.9863-41.0156 10.8398-39.209Q10.6934-37.4023 11.4746-35.7666Q12.2559-34.1309 13.916-33.0811Q15.5762-32.0312 18.1152-32.0312Z"/>
  </g>
  <g id="Light-L" transform="matrix(1 0 0 1 1079.38 1556)">
   <path d="M16.4062-33.1543L66.6992-33.0078Q67.2363-33.0078 67.4561-32.7393Q67.6758-32.4707 67.6758-31.9824L67.8223 17.9688Q67.8223 20.0195 68.6768 21.3623Q69.5312 22.7051 70.8496 23.3398Q72.168 23.9746 73.6816 23.8281Q75.1953 23.6816 76.5625 22.7051Q77.9297 21.7285 78.8086 19.9219L127.881-84.7656Q129.053-87.3047 128.784-89.3066Q128.516-91.3086 127.173-92.5049Q125.83-93.7012 123.755-93.8721Q121.68-94.043 119.336-92.9688L14.209-43.8965Q12.4512-43.1152 11.5479-41.7725Q10.6445-40.4297 10.5469-38.9648Q10.4492-37.5 11.084-36.1816Q11.7188-34.8633 13.0615-34.0088Q14.4043-33.1543 16.4062-33.1543Z"/>
  </g>
  <g id="Thin-L" transform="matrix(1 0 0 1 783.497 1556)">
   <path d="M14.1113-34.6191L67.7734-34.5215Q68.1641-34.5215 68.3838-34.3018Q68.6035-34.082 68.6035-33.6914L68.7012 19.6289Q68.7012 21.0449 69.2871 21.9727Q69.873 22.9004 70.8008 23.3154Q71.7285 23.7305 72.7783 23.6328Q73.8281 23.5352 74.7559 22.9004Q75.6836 22.2656 76.1719 21.1914L127.246-87.0117Q128.125-88.916 127.93-90.3564Q127.734-91.7969 126.758-92.627Q125.781-93.457 124.316-93.5791Q122.852-93.7012 121.191-92.9199L12.7441-42.0898Q11.4746-41.5039 10.8643-40.5762Q10.2539-39.6484 10.1807-38.623Q10.1074-37.5977 10.5469-36.6943Q10.9863-35.791 11.8896-35.2051Q12.793-34.6191 14.1113-34.6191Z"/>
  </g>
  <g id="Ultralight-L" transform="matrix(1 0 0 1 487.201 1556)">
   <path d="M12.9395-35.4004L68.3105-35.3516Q68.6523-35.3516 68.8721-35.1074Q69.0918-34.8633 69.0918-34.5703L69.1406 20.459Q69.1406 21.582 69.6045 22.29Q70.0684 22.998 70.8008 23.3154Q71.5332 23.6328 72.3145 23.5352Q73.0957 23.4375 73.8037 22.998Q74.5117 22.5586 74.8535 21.8262L126.904-88.1836Q127.637-89.6973 127.49-90.8447Q127.344-91.9922 126.562-92.6758Q125.781-93.3594 124.609-93.4326Q123.438-93.5059 122.119-92.9199L12.0117-41.1621Q10.9863-40.7227 10.498-39.9902Q10.0098-39.2578 9.96094-38.4766Q9.91211-37.6953 10.2783-36.9873Q10.6445-36.2793 11.3281-35.8398Q12.0117-35.4004 12.9395-35.4004Z"/>
  </g>
  <g id="Black-M" transform="matrix(1 0 0 1 2868.04 1126)">
   <path d="M20.166-26.8555L54.1992-26.8555Q54.4434-26.8555 54.3457-27.0264Q54.248-27.1973 54.248-26.8066L54.248 7.22656Q54.248 11.084 56.0547 13.6963Q57.8613 16.3086 60.6934 17.5293Q63.5254 18.75 66.6992 18.457Q69.873 18.1641 72.6562 16.2354Q75.4395 14.3066 77.0996 10.6445L112.598-67.7246Q114.893-72.8027 114.38-77.002Q113.867-81.2012 111.206-83.8379Q108.545-86.4746 104.346-86.9629Q100.146-87.4512 95.0195-85.1562L16.6504-49.707Q12.9883-48.0469 11.084-45.2637Q9.17969-42.4805 8.88672-39.3311Q8.59375-36.1816 9.81445-33.3252Q11.0352-30.4688 13.6475-28.6621Q16.2598-26.8555 20.166-26.8555Z"/>
  </g>
  <g id="Heavy-M" transform="matrix(1 0 0 1 2573.07 1126)">
   <path d="M18.9453-28.0762L53.3691-28.0762Q53.6621-28.0762 53.6377-28.1494Q53.6133-28.2227 53.6133-27.7832L53.6133 6.54297Q53.6133 10.0098 55.2246 12.3535Q56.8359 14.6973 59.3506 15.7959Q61.8652 16.8945 64.6729 16.626Q67.4805 16.3574 69.9463 14.624Q72.4121 12.8906 73.9258 9.61914L109.57-68.5547Q111.621-73.0957 111.157-76.8066Q110.693-80.5176 108.325-82.8369Q105.957-85.1562 102.222-85.5713Q98.4863-85.9863 93.9941-83.9355L15.6738-48.291Q12.4512-46.8262 10.7666-44.3604Q9.08203-41.8945 8.81348-39.1113Q8.54492-36.3281 9.64355-33.8135Q10.7422-31.2988 13.0859-29.6875Q15.4297-28.0762 18.9453-28.0762Z"/>
  </g>
  <g id="Bold-M" transform="matrix(1 0 0 1 2278.28 1126)">
   <path d="M17.5781-29.4922L52.3926-29.3945Q52.7832-29.3945 52.8564-29.3701Q52.9297-29.3457 52.9297-28.9062L52.9785 5.81055Q52.9785 8.83789 54.3213 10.8643Q55.6641 12.8906 57.8125 13.8672Q59.9609 14.8438 62.3779 14.5996Q64.7949 14.3555 66.9434 12.8418Q69.0918 11.3281 70.4102 8.44727L106.201-69.5312Q107.959-73.4375 107.544-76.5869Q107.129-79.7363 105.078-81.6895Q103.027-83.6426 99.8535-83.9844Q96.6797-84.3262 92.8223-82.5684L14.5996-46.7773Q11.8164-45.5078 10.376-43.4082Q8.93555-41.3086 8.71582-38.916Q8.49609-36.5234 9.47266-34.375Q10.4492-32.2266 12.4756-30.8594Q14.502-29.4922 17.5781-29.4922Z"/>
  </g>
  <g id="Semibold-M" transform="matrix(1 0 0 1 1982.92 1126)">
   <path d="M16.6504-30.4199L51.7578-30.3223Q52.1973-30.3223 52.2949-30.2246Q52.3926-30.127 52.3926-29.6387L52.4902 5.27344Q52.4902 8.00781 53.6865 9.83887Q54.8828 11.6699 56.7627 12.5244Q58.6426 13.3789 60.791 13.1836Q62.9395 12.9883 64.8438 11.6211Q66.748 10.2539 67.9199 7.66602L103.857-70.166Q105.42-73.6328 105.054-76.3916Q104.688-79.1504 102.856-80.8838Q101.025-82.6172 98.1934-82.9102Q95.3613-83.2031 91.9922-81.6406L13.8672-45.6543Q11.377-44.5312 10.1074-42.7002Q8.83789-40.8691 8.64258-38.7451Q8.44727-36.6211 9.32617-34.7168Q10.2051-32.8125 12.0361-31.6406Q13.8672-30.4688 16.6504-30.4199Z"/>
  </g>
  <g id="Medium-M" transform="matrix(1 0 0 1 1687.23 1126)">
   <path d="M15.918-31.1523L51.2207-31.0059Q51.709-31.0059 51.8799-30.8594Q52.0508-30.7129 52.0508-30.2246L52.1484 4.88281Q52.1484 7.37305 53.1982 9.0332Q54.248 10.6934 55.957 11.499Q57.666 12.3047 59.5947 12.1094Q61.5234 11.9141 63.2568 10.6689Q64.9902 9.42383 66.0645 7.03125L102.051-70.7031Q103.467-73.8281 103.149-76.2939Q102.832-78.7598 101.172-80.2979Q99.5117-81.8359 96.9727-82.0801Q94.4336-82.3242 91.3574-80.9082L13.2812-44.873Q11.084-43.8477 9.93652-42.1875Q8.78906-40.5273 8.61816-38.623Q8.44727-36.7188 9.22852-35.0098Q10.0098-33.3008 11.6943-32.251Q13.3789-31.2012 15.918-31.1523Z"/>
  </g>
  <g id="Regular-M" transform="matrix(1 0 0 1 1391.84 1126)">
   <path d="M14.9902-32.0801L50.5859-31.9336Q51.123-31.9336 51.3428-31.7139Q51.5625-31.4941 51.5625-30.957L51.6602 4.3457Q51.6602 6.54297 52.5635 8.00781Q53.4668 9.47266 54.9316 10.1807Q56.3965 10.8887 58.0566 10.7178Q59.7168 10.5469 61.2061 9.44824Q62.6953 8.34961 63.6719 6.25L99.7559-71.3379Q100.977-74.0234 100.684-76.123Q100.391-78.2227 98.9502-79.5166Q97.5098-80.8105 95.3369-81.0059Q93.1641-81.2012 90.5762-79.9805L12.5488-43.7988Q10.6445-42.9199 9.66797-41.5039Q8.69141-40.0879 8.54492-38.4521Q8.39844-36.8164 9.10645-35.376Q9.81445-33.9355 11.2793-33.0322Q12.7441-32.1289 14.9902-32.0801Z"/>
  </g>
  <g id="Light-M" transform="matrix(1 0 0 1 1095.69 1126)">
   <path d="M13.4766-33.1055L51.3184-32.959Q51.7578-32.959 51.9531-32.7637Q52.1484-32.5684 52.1484-32.1289L52.2461 5.46875Q52.2461 7.22656 52.9785 8.42285Q53.7109 9.61914 54.9072 10.1807Q56.1035 10.7422 57.4219 10.5957Q58.7402 10.4492 59.9365 9.59473Q61.1328 8.74023 61.9141 7.08008L99.3164-72.8516Q100.342-75.0977 100.098-76.8311Q99.8535-78.5645 98.6816-79.6143Q97.5098-80.6641 95.7275-80.8105Q93.9453-80.957 91.8457-79.9805L11.5723-42.5781Q10.0098-41.8457 9.2041-40.6982Q8.39844-39.5508 8.27637-38.2324Q8.1543-36.9141 8.74023-35.7422Q9.32617-34.5703 10.498-33.8379Q11.6699-33.1055 13.4766-33.1055Z"/>
  </g>
  <g id="Thin-M" transform="matrix(1 0 0 1 799.733 1126)">
   <path d="M11.4258-34.4238L52.2949-34.375Q52.5879-34.375 52.7832-34.1797Q52.9785-33.9844 52.9785-33.6426L53.0273 6.93359Q53.0273 8.1543 53.54 8.95996Q54.0527 9.76562 54.8828 10.1318Q55.7129 10.498 56.6162 10.4248Q57.5195 10.3516 58.3252 9.79004Q59.1309 9.22852 59.5703 8.20312L98.7305-74.9023Q99.5117-76.4648 99.3408-77.71Q99.1699-78.9551 98.3154-79.6875Q97.4609-80.4199 96.2158-80.5176Q94.9707-80.6152 93.5059-79.9316L10.2051-40.9668Q9.13086-40.4297 8.56934-39.624Q8.00781-38.8184 7.93457-37.915Q7.86133-37.0117 8.25195-36.2305Q8.64258-35.4492 9.44824-34.9609Q10.2539-34.4727 11.4258-34.4238Z"/>
  </g>
  <g id="Ultralight-M" transform="matrix(1 0 0 1 503.412 1126)">
   <path d="M10.4004-35.1074L52.7832-35.0586Q53.0273-35.0586 53.1982-34.8877Q53.3691-34.7168 53.3691-34.4727L53.418 7.66602Q53.418 8.64258 53.833 9.25293Q54.248 9.86328 54.8584 10.1318Q55.4688 10.4004 56.1523 10.3271Q56.8359 10.2539 57.4463 9.86328Q58.0566 9.47266 58.3984 8.78906L98.4375-75.9277Q99.0723-77.1973 98.9258-78.1982Q98.7793-79.1992 98.1201-79.7607Q97.4609-80.3223 96.46-80.3955Q95.459-80.4688 94.3359-79.9316L9.57031-40.1367Q8.69141-39.6973 8.25195-39.0869Q7.8125-38.4766 7.76367-37.793Q7.71484-37.1094 8.00781-36.499Q8.30078-35.8887 8.91113-35.498Q9.52148-35.1074 10.4004-35.1074Z"/>
  </g>
  <g id="Black-S" transform="matrix(1 0 0 1 2881.69 696)">
   <path d="M16.0645-28.3691L42.7734-28.3691Q42.9199-28.3691 42.8223-28.5156Q42.7246-28.6621 42.7246-28.418L42.7246-1.70898Q42.7246 2.24609 44.9463 4.54102Q47.168 6.83594 50.3418 7.32422Q53.5156 7.8125 56.5674 6.29883Q59.6191 4.78516 61.2793 1.07422L89.1113-60.498Q91.0156-64.6484 90.6006-68.042Q90.1855-71.4355 88.0127-73.6084Q85.8398-75.7812 82.4219-76.1719Q79.0039-76.5625 74.8535-74.707L13.2812-46.9238Q9.57031-45.2637 8.05664-42.2119Q6.54297-39.1602 7.03125-35.9863Q7.51953-32.8125 9.81445-30.5908Q12.1094-28.3691 16.0645-28.3691Z"/>
  </g>
  <g id="Heavy-S" transform="matrix(1 0 0 1 2586.4 696)">
   <path d="M15.2344-29.2969L41.9434-29.248Q42.1875-29.248 42.1387-29.3213Q42.0898-29.3945 42.0898-29.1016L42.1387-2.44141Q42.1387 1.17188 44.1162 3.24707Q46.0938 5.32227 48.9258 5.78613Q51.7578 6.25 54.5166 4.8584Q57.2754 3.4668 58.7891 0.0976562L86.5723-61.0352Q88.2812-64.7461 87.8906-67.7734Q87.5-70.8008 85.5469-72.7295Q83.5938-74.6582 80.542-75Q77.4902-75.3418 73.7793-73.6816L12.5977-45.8984Q9.27734-44.3848 7.91016-41.6748Q6.54297-38.9648 6.98242-36.1084Q7.42188-33.252 9.52148-31.2744Q11.6211-29.2969 15.2344-29.2969Z"/>
  </g>
  <g id="Bold-S" transform="matrix(1 0 0 1 2291.27 696)">
   <path d="M14.3066-30.3223L41.0156-30.2734Q41.3574-30.2734 41.3818-30.249Q41.4062-30.2246 41.4062-29.8828L41.4551-3.22266Q41.4551-0.0976562 43.1641 1.78223Q44.873 3.66211 47.3633 4.07715Q49.8535 4.49219 52.2461 3.24707Q54.6387 2.00195 56.0059-1.02539L83.7402-61.6699Q85.2051-64.8926 84.8877-67.5049Q84.5703-70.1172 82.8613-71.7773Q81.1523-73.4375 78.4912-73.7061Q75.8301-73.9746 72.6074-72.5098L11.8164-44.7266Q8.93555-43.457 7.76367-41.0889Q6.5918-38.7207 6.98242-36.2549Q7.37305-33.7891 9.22852-32.0801Q11.084-30.3711 14.3066-30.3223Z"/>
  </g>
  <g id="Semibold-S" transform="matrix(1 0 0 1 1995.66 696)">
   <path d="M13.623-31.0547L40.3809-30.957Q40.7715-30.957 40.8447-30.8838Q40.918-30.8105 40.918-30.4199L41.0156-3.75977Q41.0156-0.927734 42.5293 0.78125Q44.043 2.49023 46.2646 2.88086Q48.4863 3.27148 50.6592 2.12402Q52.832 0.976562 54.1016-1.80664L81.7871-62.0605Q83.1055-64.9414 82.7881-67.2852Q82.4707-69.6289 80.9326-71.0938Q79.3945-72.5586 77.0264-72.7783Q74.6582-72.998 71.7773-71.7285L11.2305-43.9453Q8.69141-42.7734 7.6416-40.6494Q6.5918-38.5254 6.93359-36.3281Q7.27539-34.1309 8.98438-32.5928Q10.6934-31.0547 13.623-31.0547Z"/>
  </g>
  <g id="Medium-S" transform="matrix(1 0 0 1 1699.78 696)">
   <path d="M13.1348-31.5918L39.8926-31.4453Q40.332-31.4453 40.4541-31.3232Q40.5762-31.2012 40.5762-30.8105L40.625-4.19922Q40.625-1.5625 42.0166 0.0244141Q43.4082 1.61133 45.4346 1.97754Q47.4609 2.34375 49.4629 1.29395Q51.4648 0.244141 52.6367-2.39258L80.3223-62.4023Q81.4941-64.9902 81.2256-67.1387Q80.957-69.2871 79.541-70.5811Q78.125-71.875 75.9521-72.0703Q73.7793-72.2656 71.1914-71.0938L10.8398-43.3105Q8.49609-42.2363 7.54395-40.3076Q6.5918-38.3789 6.90918-36.377Q7.22656-34.375 8.81348-32.9834Q10.4004-31.5918 13.1348-31.5918Z"/>
  </g>
  <g id="Regular-S" transform="matrix(1 0 0 1 1404.14 696)">
   <path d="M12.5-32.2754L39.2578-32.1289Q39.7461-32.1289 39.917-31.958Q40.0879-31.7871 40.0879-31.3477L40.1855-4.73633Q40.1855-2.39258 41.3818-0.952148Q42.5781 0.488281 44.3604 0.805664Q46.1426 1.12305 47.9004 0.170898Q49.6582-0.78125 50.7324-3.125L78.3691-62.793Q79.3945-65.0879 79.1504-66.9434Q78.9062-68.7988 77.6611-69.9219Q76.416-71.0449 74.5117-71.1914Q72.6074-71.3379 70.3613-70.3125L10.3027-42.5293Q8.25195-41.6016 7.42188-39.917Q6.5918-38.2324 6.88477-36.4746Q7.17773-34.7168 8.59375-33.5205Q10.0098-32.3242 12.5-32.2754Z"/>
  </g>
  <g id="Light-S" transform="matrix(1 0 0 1 1107.92 696)">
   <path d="M11.1328-33.1543L39.8926-33.0566Q40.2832-33.0566 40.4541-32.9102Q40.625-32.7637 40.625-32.373L40.7227-3.75977Q40.7227-1.85547 41.6992-0.708008Q42.6758 0.439453 44.0918 0.683594Q45.5078 0.927734 46.9238 0.195312Q48.3398-0.537109 49.1699-2.39258L77.9785-64.1602Q78.8574-66.0156 78.6377-67.5537Q78.418-69.0918 77.417-69.9951Q76.416-70.8984 74.8535-71.0205Q73.291-71.1426 71.4844-70.3125L9.42383-41.4551Q7.76367-40.6738 7.08008-39.3066Q6.39648-37.9395 6.64062-36.5479Q6.88477-35.1562 8.03223-34.1797Q9.17969-33.2031 11.1328-33.1543Z"/>
  </g>
  <g id="Thin-S" transform="matrix(1 0 0 1 811.867 696)">
   <path d="M9.32617-34.3262L40.7715-34.2773Q41.0645-34.2773 41.2109-34.1309Q41.3574-33.9844 41.3574-33.6914L41.4062-2.49023Q41.4062-1.12305 42.0898-0.366211Q42.7734 0.390625 43.7256 0.537109Q44.6777 0.683594 45.6299 0.219727Q46.582-0.244141 47.168-1.41602L77.4414-65.918Q78.0762-67.2852 77.9541-68.3594Q77.832-69.4336 77.0996-70.0684Q76.3672-70.7031 75.2686-70.7764Q74.1699-70.8496 72.9492-70.2637L8.25195-39.9902Q7.08008-39.4531 6.61621-38.5254Q6.15234-37.5977 6.32324-36.6455Q6.49414-35.6934 7.27539-35.0342Q8.05664-34.375 9.32617-34.3262Z"/>
  </g>
  <g id="Ultralight-S" transform="matrix(1 0 0 1 515.473 696)">
   <path d="M8.39844-34.9609L41.2109-34.9121Q41.4062-34.9121 41.5527-34.79Q41.6992-34.668 41.6992-34.375L41.7969-1.80664Q41.7969-0.78125 42.3096-0.219727Q42.8223 0.341797 43.5547 0.463867Q44.2871 0.585938 44.9951 0.244141Q45.7031-0.0976562 46.0938-0.878906L77.1973-66.8457Q77.7344-67.9199 77.6123-68.7744Q77.4902-69.6289 76.9287-70.1172Q76.3672-70.6055 75.5127-70.6543Q74.6582-70.7031 73.7305-70.2637L7.66602-39.2578Q6.73828-38.8184 6.39648-38.1104Q6.05469-37.4023 6.17676-36.6943Q6.29883-35.9863 6.88477-35.4736Q7.4707-34.9609 8.39844-34.9609Z"/>
  </g>
 </g>
</svg>
