<?xml version="1.0" encoding="UTF-8"?>
<!--Generator: Apple Native CoreSVG 149-->
<!DOCTYPE svg
PUBLIC "-//W3C//DTD SVG 1.1//EN"
       "http://www.w3.org/Graphics/SVG/1.1/DTD/svg11.dtd">
<svg version="1.1" xmlns="http://www.w3.org/2000/svg" xmlns:xlink="http://www.w3.org/1999/xlink" width="3300" height="2200">
 <!--glyph: "uni1002D1.medium", point size: 100.0, font version: "17.0d9e1", template writer version: "59"-->
 <g id="Notes">
  <rect height="2200" id="artboard" style="fill:white;opacity:1" width="3300" x="0" y="0"/>
  <line style="fill:none;stroke:black;opacity:1;stroke-width:0.5;" x1="263" x2="3036" y1="292" y2="292"/>
  <text style="stroke:none;fill:black;font-family:sans-serif;font-size:13;font-weight:bold;" transform="matrix(1 0 0 1 263 322)">Weight/Scale Variations</text>
  <text style="stroke:none;fill:black;font-family:sans-serif;font-size:13;text-anchor:middle;" transform="matrix(1 0 0 1 559.711 322)">Ultralight</text>
  <text style="stroke:none;fill:black;font-family:sans-serif;font-size:13;text-anchor:middle;" transform="matrix(1 0 0 1 856.422 322)">Thin</text>
  <text style="stroke:none;fill:black;font-family:sans-serif;font-size:13;text-anchor:middle;" transform="matrix(1 0 0 1 1153.13 322)">Light</text>
  <text style="stroke:none;fill:black;font-family:sans-serif;font-size:13;text-anchor:middle;" transform="matrix(1 0 0 1 1449.84 322)">Regular</text>
  <text style="stroke:none;fill:black;font-family:sans-serif;font-size:13;text-anchor:middle;" transform="matrix(1 0 0 1 1746.56 322)">Medium</text>
  <text style="stroke:none;fill:black;font-family:sans-serif;font-size:13;text-anchor:middle;" transform="matrix(1 0 0 1 2043.27 322)">Semibold</text>
  <text style="stroke:none;fill:black;font-family:sans-serif;font-size:13;text-anchor:middle;" transform="matrix(1 0 0 1 2339.98 322)">Bold</text>
  <text style="stroke:none;fill:black;font-family:sans-serif;font-size:13;text-anchor:middle;" transform="matrix(1 0 0 1 2636.69 322)">Heavy</text>
  <text style="stroke:none;fill:black;font-family:sans-serif;font-size:13;text-anchor:middle;" transform="matrix(1 0 0 1 2933.4 322)">Black</text>
  <line style="fill:none;stroke:black;opacity:1;stroke-width:0.5;" x1="263" x2="3036" y1="1903" y2="1903"/>
  <g transform="matrix(1 0 0 1 263 1933)">
   <path d="M9.24805 0.830078Q10.8691 0.830078 12.2949 0.214844Q13.7207-0.400391 14.8096-1.49414Q15.8984-2.58789 16.5186-4.01367Q17.1387-5.43945 17.1387-7.05078Q17.1387-8.66211 16.5186-10.0879Q15.8984-11.5137 14.8047-12.6074Q13.7109-13.7012 12.2852-14.3164Q10.8594-14.9316 9.23828-14.9316Q7.62695-14.9316 6.20117-14.3164Q4.77539-13.7012 3.69141-12.6074Q2.60742-11.5137 1.9873-10.0879Q1.36719-8.66211 1.36719-7.05078Q1.36719-5.43945 1.9873-4.01367Q2.60742-2.58789 3.69629-1.49414Q4.78516-0.400391 6.21094 0.214844Q7.63672 0.830078 9.24805 0.830078ZM9.24805-0.654297Q7.91992-0.654297 6.7627-1.14746Q5.60547-1.64062 4.73145-2.51953Q3.85742-3.39844 3.36426-4.56055Q2.87109-5.72266 2.87109-7.05078Q2.87109-8.37891 3.35938-9.54102Q3.84766-10.7031 4.72168-11.582Q5.5957-12.4609 6.75293-12.9541Q7.91016-13.4473 9.23828-13.4473Q10.5762-13.4473 11.7334-12.9541Q12.8906-12.4609 13.7695-11.582Q14.6484-10.7031 15.1465-9.54102Q15.6445-8.37891 15.6445-7.05078Q15.6445-5.72266 15.1514-4.56055Q14.6582-3.39844 13.7842-2.51953Q12.9102-1.64062 11.748-1.14746Q10.5859-0.654297 9.24805-0.654297ZM5.83984-7.04102Q5.83984-6.71875 6.04492-6.51855Q6.25-6.31836 6.5918-6.31836L8.50586-6.31836L8.50586-4.39453Q8.50586-4.0625 8.70605-3.85742Q8.90625-3.65234 9.22852-3.65234Q9.56055-3.65234 9.76562-3.85742Q9.9707-4.0625 9.9707-4.39453L9.9707-6.31836L11.8945-6.31836Q12.2266-6.31836 12.4316-6.51855Q12.6367-6.71875 12.6367-7.04102Q12.6367-7.37305 12.4316-7.57812Q12.2266-7.7832 11.8945-7.7832L9.9707-7.7832L9.9707-9.69727Q9.9707-10.0391 9.76562-10.2441Q9.56055-10.4492 9.22852-10.4492Q8.90625-10.4492 8.70605-10.2441Q8.50586-10.0391 8.50586-9.69727L8.50586-7.7832L6.5918-7.7832Q6.25-7.7832 6.04492-7.57812Q5.83984-7.37305 5.83984-7.04102Z"/>
  </g>
  <g transform="matrix(1 0 0 1 281.867 1933)">
   <path d="M11.709 2.91016Q13.75 2.91016 15.5518 2.12891Q17.3535 1.34766 18.7305-0.0292969Q20.1074-1.40625 20.8887-3.20801Q21.6699-5.00977 21.6699-7.05078Q21.6699-9.0918 20.8887-10.8936Q20.1074-12.6953 18.7305-14.0723Q17.3535-15.4492 15.5469-16.2305Q13.7402-17.0117 11.6992-17.0117Q9.6582-17.0117 7.85645-16.2305Q6.05469-15.4492 4.68262-14.0723Q3.31055-12.6953 2.5293-10.8936Q1.74805-9.0918 1.74805-7.05078Q1.74805-5.00977 2.5293-3.20801Q3.31055-1.40625 4.6875-0.0292969Q6.06445 1.34766 7.86621 2.12891Q9.66797 2.91016 11.709 2.91016ZM11.709 1.25Q9.98047 1.25 8.47656 0.605469Q6.97266-0.0390625 5.83496-1.17676Q4.69727-2.31445 4.05762-3.81836Q3.41797-5.32227 3.41797-7.05078Q3.41797-8.7793 4.05762-10.2832Q4.69727-11.7871 5.83008-12.9297Q6.96289-14.0723 8.4668-14.7119Q9.9707-15.3516 11.6992-15.3516Q13.4277-15.3516 14.9316-14.7119Q16.4355-14.0723 17.5781-12.9297Q18.7207-11.7871 19.3652-10.2832Q20.0098-8.7793 20.0098-7.05078Q20.0098-5.32227 19.3701-3.81836Q18.7305-2.31445 17.5928-1.17676Q16.4551-0.0390625 14.9463 0.605469Q13.4375 1.25 11.709 1.25ZM7.39258-7.04102Q7.39258-6.68945 7.62695-6.46484Q7.86133-6.24023 8.23242-6.24023L10.8789-6.24023L10.8789-3.57422Q10.8789-3.21289 11.1035-2.9834Q11.3281-2.75391 11.6797-2.75391Q12.0508-2.75391 12.2852-2.9834Q12.5195-3.21289 12.5195-3.57422L12.5195-6.24023L15.1758-6.24023Q15.5371-6.24023 15.7715-6.46484Q16.0059-6.68945 16.0059-7.04102Q16.0059-7.41211 15.7715-7.6416Q15.5371-7.87109 15.1758-7.87109L12.5195-7.87109L12.5195-10.5176Q12.5195-10.8984 12.2852-11.1279Q12.0508-11.3574 11.6797-11.3574Q11.3281-11.3574 11.1035-11.1279Q10.8789-10.8984 10.8789-10.5176L10.8789-7.87109L8.23242-7.87109Q7.85156-7.87109 7.62207-7.6416Q7.39258-7.41211 7.39258-7.04102Z"/>
  </g>
  <g transform="matrix(1 0 0 1 305.646 1933)">
   <path d="M14.9707 5.66406Q17.0605 5.66406 18.96 5.01465Q20.8594 4.36523 22.4512 3.19336Q24.043 2.02148 25.2197 0.429688Q26.3965-1.16211 27.0459-3.06641Q27.6953-4.9707 27.6953-7.05078Q27.6953-9.14062 27.0459-11.04Q26.3965-12.9395 25.2197-14.5312Q24.043-16.123 22.4512-17.2998Q20.8594-18.4766 18.9551-19.126Q17.0508-19.7754 14.9609-19.7754Q12.8711-19.7754 10.9717-19.126Q9.07227-18.4766 7.48535-17.2998Q5.89844-16.123 4.72168-14.5312Q3.54492-12.9395 2.90039-11.04Q2.25586-9.14062 2.25586-7.05078Q2.25586-4.9707 2.90527-3.06641Q3.55469-1.16211 4.72656 0.429688Q5.89844 2.02148 7.49023 3.19336Q9.08203 4.36523 10.9814 5.01465Q12.8809 5.66406 14.9707 5.66406ZM14.9707 3.84766Q13.1641 3.84766 11.5283 3.2959Q9.89258 2.74414 8.53516 1.74805Q7.17773 0.751953 6.17676-0.610352Q5.17578-1.97266 4.62891-3.6084Q4.08203-5.24414 4.08203-7.05078Q4.08203-8.86719 4.62891-10.5029Q5.17578-12.1387 6.17188-13.501Q7.16797-14.8633 8.52539-15.8594Q9.88281-16.8555 11.5186-17.4023Q13.1543-17.9492 14.9609-17.9492Q16.7773-17.9492 18.4131-17.4023Q20.0488-16.8555 21.4111-15.8594Q22.7734-14.8633 23.7695-13.501Q24.7656-12.1387 25.3174-10.5029Q25.8691-8.86719 25.8691-7.05078Q25.8789-5.24414 25.332-3.6084Q24.7852-1.97266 23.7842-0.610352Q22.7832 0.751953 21.4209 1.74805Q20.0586 2.74414 18.4229 3.2959Q16.7871 3.84766 14.9707 3.84766ZM9.45312-7.04102Q9.45312-6.66016 9.71191-6.41113Q9.9707-6.16211 10.3711-6.16211L14.0625-6.16211L14.0625-2.46094Q14.0625-2.06055 14.3115-1.80664Q14.5605-1.55273 14.9414-1.55273Q15.3516-1.55273 15.6055-1.80664Q15.8594-2.06055 15.8594-2.46094L15.8594-6.16211L19.5605-6.16211Q19.9609-6.16211 20.2148-6.41113Q20.4688-6.66016 20.4688-7.04102Q20.4688-7.45117 20.2148-7.70508Q19.9609-7.95898 19.5605-7.95898L15.8594-7.95898L15.8594-11.6504Q15.8594-12.0605 15.6055-12.3145Q15.3516-12.5684 14.9414-12.5684Q14.5605-12.5684 14.3115-12.3096Q14.0625-12.0508 14.0625-11.6504L14.0625-7.95898L10.3711-7.95898Q9.96094-7.95898 9.70703-7.70508Q9.45312-7.45117 9.45312-7.04102Z"/>
  </g>
  <text style="stroke:none;fill:black;font-family:sans-serif;font-size:13;font-weight:bold;" transform="matrix(1 0 0 1 263 1953)">Design Variations</text>
  <text style="stroke:none;fill:black;font-family:sans-serif;font-size:13;" transform="matrix(1 0 0 1 263 1971)">Symbols are supported in up to nine weights and three scales.</text>
  <text style="stroke:none;fill:black;font-family:sans-serif;font-size:13;" transform="matrix(1 0 0 1 263 1989)">For optimal layout with text and other symbols, vertically align</text>
  <text style="stroke:none;fill:black;font-family:sans-serif;font-size:13;" transform="matrix(1 0 0 1 263 2007)">symbols with the adjacent text.</text>
  <line style="fill:none;stroke:#00AEEF;stroke-width:0.5;opacity:1.0;" x1="776" x2="776" y1="1919" y2="1933"/>
  <g transform="matrix(1 0 0 1 776 1933)">
   <path d="M3.31055 0.15625Q3.70117 0.15625 3.91602-0.00976562Q4.13086-0.175781 4.26758-0.585938L5.52734-4.0332L11.2891-4.0332L12.5488-0.585938Q12.6855-0.175781 12.9004-0.00976562Q13.1152 0.15625 13.4961 0.15625Q13.8867 0.15625 14.1162-0.0585938Q14.3457-0.273438 14.3457-0.644531Q14.3457-0.869141 14.2383-1.17188L9.6582-13.3691Q9.48242-13.8184 9.17969-14.043Q8.87695-14.2676 8.4082-14.2676Q7.5-14.2676 7.17773-13.3789L2.59766-1.16211Q2.49023-0.859375 2.49023-0.634766Q2.49023-0.263672 2.70996-0.0537109Q2.92969 0.15625 3.31055 0.15625ZM6.00586-5.51758L8.37891-12.0898L8.42773-12.0898L10.8008-5.51758Z"/>
  </g>
  <line style="fill:none;stroke:#00AEEF;stroke-width:0.5;opacity:1.0;" x1="793.197" x2="793.197" y1="1919" y2="1933"/>
  <text style="stroke:none;fill:black;font-family:sans-serif;font-size:13;font-weight:bold;" transform="matrix(1 0 0 1 776 1953)">Margins</text>
  <text style="stroke:none;fill:black;font-family:sans-serif;font-size:13;" transform="matrix(1 0 0 1 776 1971)">Leading and trailing margins on the left and right side of each symbol</text>
  <text style="stroke:none;fill:black;font-family:sans-serif;font-size:13;" transform="matrix(1 0 0 1 776 1989)">can be adjusted by modifying the x-location of the margin guidelines.</text>
  <text style="stroke:none;fill:black;font-family:sans-serif;font-size:13;" transform="matrix(1 0 0 1 776 2007)">Modifications are automatically applied proportionally to all</text>
  <text style="stroke:none;fill:black;font-family:sans-serif;font-size:13;" transform="matrix(1 0 0 1 776 2025)">scales and weights.</text>
  <g transform="matrix(1 0 0 1 1289 1933)">
   <path d="M2.8418 1.86523L4.54102 3.57422Q5.18555 4.22852 5.90332 4.17969Q6.62109 4.13086 7.31445 3.35938L18.0078-8.42773L17.041-9.4043L6.42578 2.27539Q6.16211 2.57812 5.89355 2.61719Q5.625 2.65625 5.27344 2.30469L4.10156 1.14258Q3.75 0.791016 3.79395 0.522461Q3.83789 0.253906 4.14062-0.0195312L15.6152-10.8203L14.6387-11.7871L3.04688-0.898438Q2.30469-0.214844 2.25098 0.498047Q2.19727 1.21094 2.8418 1.86523ZM9.25781-16.3281Q8.94531-16.0254 8.90625-15.6348Q8.86719-15.2441 9.04297-14.9512Q9.21875-14.6777 9.55566-14.541Q9.89258-14.4043 10.3809-14.5215Q11.4746-14.7754 12.5977-14.7314Q13.7207-14.6875 14.7949-13.9844L14.209-12.5293Q13.9551-11.9043 14.0674-11.4404Q14.1797-10.9766 14.5801-10.5664L16.875-8.25195Q17.2363-7.88086 17.5781-7.82227Q17.9199-7.76367 18.3398-7.8418L19.4043-8.03711L20.0684-7.36328L20.0293-6.80664Q20-6.43555 20.1221-6.12305Q20.2441-5.81055 20.6055-5.44922L21.3672-4.70703Q21.7285-4.3457 22.1533-4.33105Q22.5781-4.31641 22.9297-4.66797L25.8398-7.58789Q26.1914-7.93945 26.1816-8.35449Q26.1719-8.76953 25.8105-9.13086L25.0391-9.89258Q24.6875-10.2539 24.3799-10.3857Q24.0723-10.5176 23.7109-10.4883L23.1348-10.4395L22.4902-11.0742L22.7344-12.1973Q22.832-12.6172 22.6953-12.9834Q22.5586-13.3496 22.1191-13.7891L19.9219-15.9766Q18.6719-17.2168 17.2607-17.8369Q15.8496-18.457 14.4189-18.4814Q12.9883-18.5059 11.665-17.959Q10.3418-17.4121 9.25781-16.3281ZM10.752-15.957Q11.6602-16.6211 12.7002-16.9043Q13.7402-17.1875 14.8047-17.085Q15.8691-16.9824 16.8701-16.5137Q17.8711-16.0449 18.7012-15.2051L21.1328-12.793Q21.3086-12.6172 21.3525-12.4512Q21.3965-12.2852 21.3379-12.0312L21.0156-10.5469L22.5195-9.0625L23.5059-9.12109Q23.6914-9.13086 23.7891-9.09668Q23.8867-9.0625 24.0332-8.91602L24.6094-8.33984L22.168-5.89844L21.5918-6.47461Q21.4453-6.62109 21.4062-6.71875Q21.3672-6.81641 21.377-7.01172L21.4453-7.98828L19.9512-9.47266L18.4277-9.21875Q18.1836-9.16992 18.042-9.2041Q17.9004-9.23828 17.7148-9.41406L15.7129-11.416Q15.5176-11.5918 15.4932-11.7529Q15.4688-11.9141 15.5859-12.1875L16.4648-14.2773Q15.293-15.3711 13.8281-15.791Q12.3633-16.2109 10.8398-15.7617Q10.7227-15.7324 10.6885-15.8057Q10.6543-15.8789 10.752-15.957Z"/>
  </g>
  <text style="stroke:none;fill:black;font-family:sans-serif;font-size:13;font-weight:bold;" transform="matrix(1 0 0 1 1289 1953)">Exporting</text>
  <text style="stroke:none;fill:black;font-family:sans-serif;font-size:13;" transform="matrix(1 0 0 1 1289 1971)">Symbols should be outlined when exporting to ensure the</text>
  <text style="stroke:none;fill:black;font-family:sans-serif;font-size:13;" transform="matrix(1 0 0 1 1289 1989)">design is preserved when submitting to Xcode.</text>
  <text id="template-version" style="stroke:none;fill:black;font-family:sans-serif;font-size:13;text-anchor:end;" transform="matrix(1 0 0 1 3036 1933)">Template v.2.0</text>
  <text style="stroke:none;fill:black;font-family:sans-serif;font-size:13;text-anchor:end;" transform="matrix(1 0 0 1 3036 1951)">Requires Xcode 13 or greater</text>
  <text id="descriptive-name" style="stroke:none;fill:black;font-family:sans-serif;font-size:13;text-anchor:end;" transform="matrix(1 0 0 1 3036 1969)">Generated from location</text>
  <text style="stroke:none;fill:black;font-family:sans-serif;font-size:13;text-anchor:end;" transform="matrix(1 0 0 1 3036 1987)">Typeset at 100 points</text>
  <text style="stroke:none;fill:black;font-family:sans-serif;font-size:13;" transform="matrix(1 0 0 1 263 726)">Small</text>
  <text style="stroke:none;fill:black;font-family:sans-serif;font-size:13;" transform="matrix(1 0 0 1 263 1156)">Medium</text>
  <text style="stroke:none;fill:black;font-family:sans-serif;font-size:13;" transform="matrix(1 0 0 1 263 1586)">Large</text>
 </g>
 <g id="Guides">
  <g id="H-reference" style="fill:#27AAE1;stroke:none;" transform="matrix(1 0 0 1 339 696)">
   <path d="M0.976562 0L3.66211 0L29.3457-67.1387L30.0293-67.1387L30.0293-70.459L28.125-70.459ZM11.6699-24.4629L46.9727-24.4629L46.2402-26.709L12.4512-26.709ZM55.127 0L57.7637 0L30.6152-70.459L29.4434-70.459L29.4434-67.1387Z"/>
  </g>
  <line id="Baseline-S" style="fill:none;stroke:#27AAE1;opacity:1;stroke-width:0.5;" x1="263" x2="3036" y1="696" y2="696"/>
  <line id="Capline-S" style="fill:none;stroke:#27AAE1;opacity:1;stroke-width:0.5;" x1="263" x2="3036" y1="625.541" y2="625.541"/>
  <g id="H-reference" style="fill:#27AAE1;stroke:none;" transform="matrix(1 0 0 1 339 1126)">
   <path d="M0.976562 0L3.66211 0L29.3457-67.1387L30.0293-67.1387L30.0293-70.459L28.125-70.459ZM11.6699-24.4629L46.9727-24.4629L46.2402-26.709L12.4512-26.709ZM55.127 0L57.7637 0L30.6152-70.459L29.4434-70.459L29.4434-67.1387Z"/>
  </g>
  <line id="Baseline-M" style="fill:none;stroke:#27AAE1;opacity:1;stroke-width:0.5;" x1="263" x2="3036" y1="1126" y2="1126"/>
  <line id="Capline-M" style="fill:none;stroke:#27AAE1;opacity:1;stroke-width:0.5;" x1="263" x2="3036" y1="1055.54" y2="1055.54"/>
  <g id="H-reference" style="fill:#27AAE1;stroke:none;" transform="matrix(1 0 0 1 339 1556)">
   <path d="M0.976562 0L3.66211 0L29.3457-67.1387L30.0293-67.1387L30.0293-70.459L28.125-70.459ZM11.6699-24.4629L46.9727-24.4629L46.2402-26.709L12.4512-26.709ZM55.127 0L57.7637 0L30.6152-70.459L29.4434-70.459L29.4434-67.1387Z"/>
  </g>
  <line id="Baseline-L" style="fill:none;stroke:#27AAE1;opacity:1;stroke-width:0.5;" x1="263" x2="3036" y1="1556" y2="1556"/>
  <line id="Capline-L" style="fill:none;stroke:#27AAE1;opacity:1;stroke-width:0.5;" x1="263" x2="3036" y1="1485.54" y2="1485.54"/>
  <line id="left-margin" style="fill:none;stroke:#00AEEF;stroke-width:0.5;opacity:1.0;" x1="1391.84" x2="1391.84" y1="1030.79" y2="1150.12"/>
  <line id="right-margin" style="fill:none;stroke:#00AEEF;stroke-width:0.5;opacity:1.0;" x1="1507.85" x2="1507.85" y1="1030.79" y2="1150.12"/>
 </g>
 <g id="Symbols">
  <g id="Black-L" transform="matrix(1 0 0 1 2850.9 1556)">
   <path d="M20.5078-52.6855Q16.1621-50.7324 13.8916-47.4121Q11.6211-44.0918 11.3037-40.332Q10.9863-36.5723 12.4512-33.2031Q13.916-29.834 17.0898-27.6855Q20.2637-25.5371 24.9512-25.5371L68.7988-25.4395Q69.1406-25.4395 69.0674-25.5859Q68.9941-25.7324 68.9941-25.2441L69.043 18.5059Q69.043 23.2422 71.1914 26.3916Q73.3398 29.541 76.7334 31.0059Q80.127 32.4707 83.9111 32.1045Q87.6953 31.7383 91.04 29.3945Q94.3848 27.0508 96.3867 22.6562L142.041-77.7344Q144.775-83.7891 144.165-88.7451Q143.555-93.7012 140.356-96.8262Q137.158-99.9512 132.153-100.537Q127.148-101.123 121.094-98.3887ZM52.3438-44.873Q52.0508-44.873 52.002-45.0195Q51.9531-45.166 52.2461-45.3125L118.018-74.9512Q118.311-75.0977 118.506-75Q118.701-74.9023 118.457-74.4141L88.7695-8.83789Q88.6719-8.54492 88.5254-8.59375Q88.3789-8.64258 88.3789-8.88672L88.5742-34.7656Q88.623-40.5762 86.3281-42.8467Q84.0332-45.1172 78.2715-45.0684Z"/>
  </g>
  <g id="Heavy-L" transform="matrix(1 0 0 1 2556.1 1556)">
   <path d="M19.2383-50.9766Q15.3809-49.2676 13.3789-46.3135Q11.377-43.3594 11.1084-40.0635Q10.8398-36.7676 12.1582-33.7891Q13.4766-30.8105 16.3086-28.9062Q19.1406-27.002 23.3398-27.002L68.1152-26.9043Q68.457-26.9043 68.457-26.9531Q68.457-27.002 68.457-26.5137L68.5059 18.1152Q68.5059 22.3145 70.4102 25.1221Q72.3145 27.9297 75.3174 29.248Q78.3203 30.5664 81.665 30.2246Q85.0098 29.8828 87.9883 27.8076Q90.9668 25.7324 92.7246 21.8262L138.867-78.9551Q141.26-84.3262 140.723-88.6963Q140.186-93.0664 137.354-95.8252Q134.521-98.584 130.078-99.0967Q125.635-99.6094 120.312-97.168ZM45.7031-43.75Q45.459-43.75 45.4102-43.8965Q45.3613-44.043 45.6055-44.1895L118.213-77.1484Q118.506-77.2949 118.701-77.1729Q118.896-77.0508 118.652-76.5625L85.6445-4.19922Q85.5469-3.90625 85.4004-3.95508Q85.2539-4.00391 85.2539-4.24805L85.4492-35.0586Q85.498-39.9414 83.4717-41.9678Q81.4453-43.9941 76.5625-43.9453Z"/>
  </g>
  <g id="Bold-L" transform="matrix(1 0 0 1 2261.54 1556)">
   <path d="M17.8711-49.1211Q14.5508-47.6074 12.8418-45.0928Q11.1328-42.5781 10.9131-39.7705Q10.6934-36.9629 11.8652-34.4238Q13.0371-31.8848 15.4785-30.2734Q17.9199-28.6621 21.5332-28.6621L67.334-28.5156Q67.7246-28.5156 67.7979-28.4912Q67.8711-28.4668 67.8711-27.9785L67.9688 17.627Q67.9688 21.3379 69.5801 23.7549Q71.1914 26.1719 73.7549 27.2949Q76.3184 28.418 79.1748 28.125Q82.0312 27.832 84.5703 26.0498Q87.1094 24.2676 88.6719 20.8984L135.303-80.3711Q137.402-84.9609 136.914-88.6719Q136.426-92.3828 134.009-94.7266Q131.592-97.0703 127.783-97.4854Q123.975-97.9004 119.434-95.8008ZM38.3301-42.4805Q38.0371-42.4805 38.0127-42.6514Q37.9883-42.8223 38.2324-42.9688L118.408-79.5898Q118.75-79.7363 118.945-79.6143Q119.141-79.4922 118.896-79.0039L82.1777 1.02539Q82.0801 1.26953 81.9092 1.2207Q81.7383 1.17188 81.7383 0.976562L81.9336-35.4492Q81.9824-39.2578 80.249-40.9912Q78.5156-42.7246 74.6094-42.7246Z"/>
  </g>
  <g id="Semibold-L" transform="matrix(1 0 0 1 1966.29 1556)">
   <path d="M16.8945-47.8027Q13.916-46.4844 12.4268-44.2627Q10.9375-42.041 10.7666-39.5508Q10.5957-37.0605 11.6455-34.8389Q12.6953-32.6172 14.8926-31.2012Q17.0898-29.7852 20.2637-29.7852L66.748-29.6387Q67.1875-29.6387 67.3096-29.541Q67.4316-29.4434 67.4316-28.9551L67.5293 17.2852Q67.5293 20.6055 68.9697 22.7783Q70.4102 24.9512 72.6807 25.9521Q74.9512 26.9531 77.4658 26.6846Q79.9805 26.416 82.2266 24.8291Q84.4727 23.2422 85.8398 20.2148L132.861-81.2988Q134.668-85.3516 134.253-88.623Q133.838-91.8945 131.689-93.9453Q129.541-95.9961 126.172-96.3379Q122.803-96.6797 118.848-94.873ZM33.2031-41.6016Q32.959-41.6016 32.9102-41.7969Q32.8613-41.9922 33.1055-42.0898L118.506-81.25Q118.896-81.4453 119.092-81.2988Q119.287-81.1523 119.043-80.6641L79.7363 4.58984Q79.6387 4.78516 79.4678 4.76074Q79.2969 4.73633 79.2969 4.54102L79.4922-35.6445Q79.541-38.7695 78.0273-40.3076Q76.5137-41.8457 73.291-41.8457Z"/>
  </g>
  <g id="Medium-L" transform="matrix(1 0 0 1 1670.7 1556)">
   <path d="M16.1621-46.7773Q13.4766-45.6055 12.1338-43.6035Q10.791-41.6016 10.6445-39.3799Q10.498-37.1582 11.4746-35.1807Q12.4512-33.2031 14.4287-31.9336Q16.4062-30.6641 19.2871-30.6641L66.3574-30.4688Q66.7969-30.4688 66.9434-30.3467Q67.0898-30.2246 67.0898-29.6875L67.2363 17.041Q67.2363 20.0684 68.5303 22.0459Q69.8242 24.0234 71.8506 24.9268Q73.877 25.8301 76.1475 25.5859Q78.418 25.3418 80.4443 23.9014Q82.4707 22.4609 83.7402 19.7266L131.006-82.0312Q132.666-85.6934 132.275-88.623Q131.885-91.5527 129.932-93.3594Q127.979-95.166 124.951-95.4834Q121.924-95.8008 118.359-94.1406ZM29.2969-40.9668Q29.0527-40.9668 29.0283-41.1377Q29.0039-41.3086 29.1992-41.4062L118.604-82.5195Q118.994-82.7148 119.189-82.5439Q119.385-82.373 119.189-81.9336L77.9297 7.27539Q77.832 7.51953 77.6611 7.49512Q77.4902 7.4707 77.4902 7.22656L77.6855-35.8398Q77.6855-38.4277 76.3428-39.8193Q75-41.2109 72.2656-41.1621Z"/>
  </g>
  <g id="Regular-L" transform="matrix(1 0 0 1 1375.45 1556)">
   <path d="M15.1855-45.5078Q12.8906-44.4824 11.7432-42.7734Q10.5957-41.0645 10.498-39.1846Q10.4004-37.3047 11.2549-35.6201Q12.1094-33.9355 13.8428-32.8613Q15.5762-31.7871 18.0664-31.7871L65.8203-31.5918Q66.3086-31.5918 66.5039-31.3965Q66.6992-31.2012 66.6992-30.6641L66.8457 16.748Q66.8457 19.3848 67.9443 21.0938Q69.043 22.8027 70.7764 23.584Q72.5098 24.3652 74.4385 24.1455Q76.3672 23.9258 78.1006 22.6807Q79.834 21.4355 80.957 19.0918L128.564-82.959Q129.98-86.084 129.639-88.5742Q129.297-91.0645 127.637-92.6025Q125.977-94.1406 123.389-94.3848Q120.801-94.6289 117.773-93.2129ZM24.2676-40.0879Q24.0234-40.0879 23.999-40.2832Q23.9746-40.4785 24.1699-40.5762L118.75-84.1797Q119.141-84.375 119.336-84.2041Q119.531-84.0332 119.336-83.5938L75.5371 10.8398Q75.4395 11.0352 75.2686 11.0107Q75.0977 10.9863 75.0977 10.791L75.293-36.084Q75.293-37.9395 74.1455-39.1357Q72.998-40.332 70.9473-40.332Z"/>
  </g>
  <g id="Light-L" transform="matrix(1 0 0 1 1079.38 1556)">
   <path d="M14.1602-44.043Q12.2559-43.2129 11.3281-41.8457Q10.4004-40.4785 10.3271-38.9404Q10.2539-37.4023 10.9375-36.0596Q11.6211-34.7168 13.0127-33.8623Q14.4043-33.0078 16.3574-33.0078L66.6504-32.8613Q67.0898-32.8613 67.2852-32.6416Q67.4805-32.4219 67.4805-31.9824L67.627 17.9688Q67.627 20.1172 68.5059 21.4844Q69.3848 22.8516 70.7764 23.4863Q72.168 24.1211 73.7305 23.9502Q75.293 23.7793 76.6602 22.8027Q78.0273 21.8262 78.9062 20.0195L128.027-84.7168Q129.199-87.3047 128.906-89.3555Q128.613-91.4062 127.246-92.627Q125.879-93.8477 123.779-94.043Q121.68-94.2383 119.238-93.1152ZM20.5566-39.3555Q20.2637-39.3555 20.2393-39.5996Q20.2148-39.8438 20.4102-39.9414L120.41-86.4746Q120.947-86.7188 121.216-86.4746Q121.484-86.2305 121.24-85.6445L74.5605 14.1602Q74.4141 14.4043 74.1699 14.3799Q73.9258 14.3555 73.9258 14.0625L74.0723-35.8887Q74.0723-37.5 73.1201-38.501Q72.168-39.502 70.3125-39.502Z"/>
  </g>
  <g id="Thin-L" transform="matrix(1 0 0 1 783.497 1556)">
   <path d="M12.7441-42.1387Q11.4258-41.5527 10.791-40.6006Q10.1562-39.6484 10.1074-38.623Q10.0586-37.5977 10.498-36.6699Q10.9375-35.7422 11.8652-35.1807Q12.793-34.6191 14.1113-34.6191L67.7734-34.5215Q68.1152-34.5215 68.335-34.3018Q68.5547-34.082 68.5547-33.6914L68.6523 19.6289Q68.6523 21.0938 69.2627 22.0215Q69.873 22.9492 70.8008 23.3643Q71.7285 23.7793 72.7783 23.6572Q73.8281 23.5352 74.7559 22.9248Q75.6836 22.3145 76.2695 21.1914L127.246-87.0117Q128.174-88.916 127.954-90.3564Q127.734-91.7969 126.758-92.6514Q125.781-93.5059 124.316-93.6279Q122.852-93.75 121.143-92.9688ZM15.625-38.3301Q15.2344-38.3301 15.21-38.6719Q15.1855-39.0137 15.4297-39.1113L122.607-89.502Q123.291-89.8438 123.706-89.4775Q124.121-89.1113 123.73-88.4277L73.1934 18.5547Q73.0469 18.8965 72.7295 18.8232Q72.4121 18.75 72.4121 18.4082L72.4609-35.6445Q72.4609-36.9629 71.7773-37.6953Q71.0938-38.4277 69.4824-38.4277Z"/>
  </g>
  <g id="Ultralight-L" transform="matrix(1 0 0 1 487.201 1556)">
   <path d="M12.0605-41.1621Q11.0352-40.6738 10.5469-39.9658Q10.0586-39.2578 10.0098-38.4521Q9.96094-37.6465 10.2783-36.9629Q10.5957-36.2793 11.3037-35.8398Q12.0117-35.4004 12.9395-35.4004L68.3105-35.3516Q68.6523-35.3516 68.8721-35.1318Q69.0918-34.9121 69.0918-34.5703L69.1406 20.459Q69.1406 21.582 69.6045 22.29Q70.0684 22.998 70.8008 23.291Q71.5332 23.584 72.3145 23.5107Q73.0957 23.4375 73.7793 22.998Q74.4629 22.5586 74.8535 21.8262L126.904-88.1836Q127.637-89.6973 127.466-90.8691Q127.295-92.041 126.514-92.6758Q125.732-93.3105 124.585-93.4082Q123.438-93.5059 122.119-92.8711ZM13.0859-37.8418Q12.6953-37.8418 12.6709-38.208Q12.6465-38.5742 12.8906-38.6719L123.73-91.0156Q124.512-91.4062 124.976-90.9912Q125.439-90.5762 125-89.7949L72.5586 20.8496Q72.3633 21.1914 71.9727 21.1182Q71.582 21.0449 71.582 20.6543L71.6797-35.5469Q71.6797-36.6699 71.1182-37.2803Q70.5566-37.8906 69.043-37.8906Z"/>
  </g>
  <g id="Black-M" transform="matrix(1 0 0 1 2868.04 1126)">
   <path d="M16.6504-49.707Q12.9883-48.0957 11.0596-45.2881Q9.13086-42.4805 8.83789-39.3066Q8.54492-36.1328 9.76562-33.3008Q10.9863-30.4688 13.623-28.6621Q16.2598-26.8555 20.166-26.8555L54.1992-26.8555Q54.3945-26.8555 54.2969-27.002Q54.1992-27.1484 54.1992-26.8066L54.1992 7.22656Q54.1992 11.1328 56.0303 13.7451Q57.8613 16.3574 60.6934 17.5781Q63.5254 18.7988 66.6992 18.4814Q69.873 18.1641 72.6807 16.2354Q75.4883 14.3066 77.1484 10.6445L112.598-67.6758Q114.893-72.8027 114.38-77.002Q113.867-81.2012 111.206-83.8379Q108.545-86.4746 104.321-86.9873Q100.098-87.5 95.0195-85.1562ZM44.9707-43.4082Q44.6777-43.4082 44.6533-43.5303Q44.6289-43.6523 44.9219-43.7988L91.8457-64.9414Q92.1387-65.0391 92.3096-64.9658Q92.4805-64.8926 92.2852-64.4531L71.1426-17.5781Q71.0449-17.3828 70.9229-17.4072Q70.8008-17.4316 70.8008-17.6758L70.8984-34.5215Q70.9473-39.7461 69.0186-41.6748Q67.0898-43.6035 61.9141-43.5547Z"/>
  </g>
  <g id="Heavy-M" transform="matrix(1 0 0 1 2573.07 1126)">
   <path d="M15.625-48.3887Q12.3535-46.9238 10.6445-44.4092Q8.93555-41.8945 8.69141-39.0869Q8.44727-36.2793 9.57031-33.7646Q10.6934-31.25 13.0615-29.6387Q15.4297-28.0273 18.9453-28.0273L53.3203-27.9785Q53.5645-27.9785 53.54-28.0762Q53.5156-28.1738 53.5156-27.7832L53.5156 6.54297Q53.5156 10.0586 55.1514 12.4268Q56.7871 14.7949 59.3018 15.8936Q61.8164 16.9922 64.6484 16.6992Q67.4805 16.4062 69.9951 14.6729Q72.5098 12.9395 74.0234 9.61914L109.619-68.5059Q111.67-73.0469 111.206-76.7822Q110.742-80.5176 108.35-82.8613Q105.957-85.2051 102.197-85.6445Q98.4375-86.084 93.9453-83.9844ZM39.3066-42.4805Q39.0137-42.4805 38.9893-42.6025Q38.9648-42.7246 39.2578-42.8223L91.6504-66.6016Q91.9434-66.6992 92.0898-66.626Q92.2363-66.5527 92.0898-66.1133L68.3105-13.7695Q68.2129-13.5742 68.0908-13.5986Q67.9688-13.623 67.9688-13.8672L68.1152-34.8633Q68.1641-39.2578 66.4307-40.9668Q64.6973-42.6758 60.3516-42.627Z"/>
  </g>
  <g id="Bold-M" transform="matrix(1 0 0 1 2278.28 1126)">
   <path d="M14.5508-46.875Q11.6699-45.6055 10.2051-43.457Q8.74023-41.3086 8.54492-38.8916Q8.34961-36.4746 9.35059-34.3018Q10.3516-32.1289 12.4268-30.7617Q14.502-29.3945 17.5781-29.3457L52.3926-29.2969Q52.6855-29.2969 52.71-29.2969Q52.7344-29.2969 52.7344-28.9062L52.7832 5.81055Q52.7832 8.88672 54.1992 10.9619Q55.6152 13.0371 57.7881 13.9893Q59.9609 14.9414 62.4023 14.6973Q64.8438 14.4531 67.0166 12.915Q69.1895 11.377 70.5078 8.49609L106.299-69.4824Q108.057-73.3887 107.642-76.5869Q107.227-79.7852 105.176-81.7871Q103.125-83.7891 99.8779-84.1553Q96.6309-84.5215 92.7246-82.7148ZM32.959-41.4551Q32.7148-41.4551 32.6904-41.5527Q32.666-41.6504 32.9102-41.7969L91.4551-68.4082Q91.748-68.5059 91.8701-68.4326Q91.9922-68.3594 91.8457-68.0176L65.1367-9.52148Q65.0391-9.32617 64.9414-9.35059Q64.8438-9.375 64.8438-9.57031L64.9902-35.2539Q65.0391-38.6719 63.5498-40.1611Q62.0605-41.6504 58.6426-41.6016Z"/>
  </g>
  <g id="Semibold-M" transform="matrix(1 0 0 1 1982.92 1126)">
   <path d="M13.7695-45.8496Q11.1816-44.6777 9.8877-42.7734Q8.59375-40.8691 8.44727-38.7207Q8.30078-36.5723 9.2041-34.6436Q10.1074-32.7148 11.9873-31.4941Q13.8672-30.2734 16.6016-30.2734L51.709-30.1758Q52.0508-30.1758 52.124-30.1025Q52.1973-30.0293 52.1973-29.6387L52.2461 5.27344Q52.2461 8.05664 53.5156 9.93652Q54.7852 11.8164 56.7139 12.6709Q58.6426 13.5254 60.8398 13.3057Q63.0371 13.0859 64.9658 11.6943Q66.8945 10.3027 68.0664 7.71484L103.955-70.1172Q105.518-73.584 105.151-76.416Q104.785-79.248 102.954-81.0059Q101.123-82.7637 98.2178-83.0811Q95.3125-83.3984 91.8945-81.7871ZM28.5645-40.7227Q28.3691-40.7227 28.3447-40.8203Q28.3203-40.918 28.5156-41.0156L91.3086-69.6777Q91.5527-69.7754 91.6748-69.7021Q91.7969-69.6289 91.6992-69.2871L62.9395-6.54297Q62.8418-6.39648 62.7441-6.4209Q62.6465-6.44531 62.6465-6.64062L62.8418-35.498Q62.8418-38.2812 61.5479-39.5996Q60.2539-40.918 57.4707-40.8691Z"/>
  </g>
  <g id="Medium-M" transform="matrix(1 0 0 1 1687.23 1126)">
   <path d="M13.1836-45.0684Q10.8398-43.9941 9.66797-42.2607Q8.49609-40.5273 8.34961-38.5986Q8.20312-36.6699 9.05762-34.9365Q9.91211-33.2031 11.6455-32.0801Q13.3789-30.957 15.8691-30.957L51.1719-30.8105Q51.6113-30.8105 51.709-30.7129Q51.8066-30.6152 51.8066-30.2246L51.8555 4.88281Q51.8555 7.4707 53.0029 9.17969Q54.1504 10.8887 55.8838 11.6699Q57.6172 12.4512 59.6191 12.2559Q61.6211 12.0605 63.3789 10.791Q65.1367 9.52148 66.2598 7.12891L102.246-70.6055Q103.662-73.7305 103.32-76.2939Q102.979-78.8574 101.294-80.4443Q99.6094-82.0312 96.9971-82.2998Q94.3848-82.5684 91.2598-81.1035ZM25.2441-40.1855Q25.0488-40.1855 25.0244-40.2832Q25-40.3809 25.2441-40.4785L91.2109-70.6055Q91.4551-70.7031 91.5771-70.6299Q91.6992-70.5566 91.5527-70.2637L61.2305-4.3457Q61.1816-4.15039 61.084-4.1748Q60.9863-4.19922 60.9863-4.39453L61.2305-35.7422Q61.2305-37.9883 60.0342-39.1846Q58.8379-40.3809 56.543-40.332Z"/>
  </g>
  <g id="Regular-M" transform="matrix(1 0 0 1 1391.84 1126)">
   <path d="M12.4023-44.043Q10.3516-43.1152 9.35059-41.6016Q8.34961-40.0879 8.25195-38.4277Q8.1543-36.7676 8.91113-35.2783Q9.66797-33.7891 11.2061-32.8369Q12.7441-31.8848 14.9414-31.8359L50.5371-31.6895Q50.9766-31.6895 51.123-31.543Q51.2695-31.3965 51.2695-30.957L51.3672 4.3457Q51.3672 6.64062 52.3438 8.17871Q53.3203 9.7168 54.834 10.4004Q56.3477 11.084 58.0811 10.9131Q59.8145 10.7422 61.3525 9.59473Q62.8906 8.44727 63.8672 6.34766L99.9512-71.2402Q101.172-73.9258 100.879-76.123Q100.586-78.3203 99.1211-79.6875Q97.6562-81.0547 95.3857-81.2744Q93.1152-81.4941 90.4297-80.2246ZM20.8984-39.4531Q20.752-39.4531 20.7275-39.5508Q20.7031-39.6484 20.8984-39.7461L91.0645-71.875Q91.3086-71.9727 91.4062-71.8994Q91.5039-71.8262 91.4062-71.5332L59.082-1.41602Q59.0332-1.26953 58.9355-1.29395Q58.8379-1.31836 58.8379-1.46484L59.082-35.9863Q59.082-37.5977 58.0566-38.623Q57.0312-39.6484 55.3711-39.6484Z"/>
  </g>
  <g id="Light-M" transform="matrix(1 0 0 1 1095.69 1126)">
   <path d="M11.4258-42.7246Q9.81445-41.9922 9.00879-40.7715Q8.20312-39.5508 8.10547-38.208Q8.00781-36.8652 8.61816-35.6689Q9.22852-34.4727 10.4492-33.7158Q11.6699-32.959 13.4277-32.959L51.2695-32.8125Q51.6602-32.8125 51.8311-32.666Q52.002-32.5195 52.002-32.1289L52.0508 5.46875Q52.0508 7.32422 52.832 8.54492Q53.6133 9.76562 54.834 10.3027Q56.0547 10.8398 57.4463 10.7178Q58.8379 10.5957 60.0586 9.69238Q61.2793 8.78906 62.0605 7.17773L99.4629-72.8027Q100.488-75 100.244-76.8066Q100-78.6133 98.8037-79.7119Q97.6074-80.8105 95.752-80.9814Q93.8965-81.1523 91.748-80.127ZM17.5781-38.7695Q17.3828-38.7695 17.3584-38.916Q17.334-39.0625 17.5293-39.1602L92.5781-73.9258Q92.9199-74.0723 93.0908-73.9258Q93.2617-73.7793 93.1152-73.3887L58.2031 1.5625Q58.1055 1.75781 57.959 1.70898Q57.8125 1.66016 57.8125 1.46484L57.959-35.8398Q57.959-37.207 57.1289-38.0615Q56.2988-38.916 54.7852-38.916Z"/>
  </g>
  <g id="Thin-M" transform="matrix(1 0 0 1 799.733 1126)">
   <path d="M10.2051-40.9668Q9.0332-40.4785 8.49609-39.6484Q7.95898-38.8184 7.91016-37.915Q7.86133-37.0117 8.25195-36.2061Q8.64258-35.4004 9.44824-34.9121Q10.2539-34.4238 11.4258-34.4238L52.2461-34.3262Q52.5879-34.3262 52.7588-34.1553Q52.9297-33.9844 52.9297-33.6426L52.9785 6.93359Q52.9785 8.20312 53.4912 9.00879Q54.0039 9.81445 54.834 10.1807Q55.6641 10.5469 56.5918 10.4736Q57.5195 10.4004 58.3496 9.83887Q59.1797 9.27734 59.668 8.25195L98.7793-74.8535Q99.5605-76.4648 99.3896-77.7344Q99.2188-79.0039 98.3643-79.7363Q97.5098-80.4688 96.2158-80.5664Q94.9219-80.6641 93.5059-80.0293ZM13.1836-37.8906Q12.8906-37.8906 12.8662-38.1104Q12.8418-38.3301 13.0371-38.4277L94.5312-76.6113Q95.0195-76.8555 95.3125-76.6113Q95.6055-76.3672 95.3613-75.8789L57.0312 5.51758Q56.8848 5.76172 56.6406 5.71289Q56.3965 5.66406 56.3965 5.37109L56.4941-35.5957Q56.4941-36.6699 55.9082-37.3047Q55.3223-37.9395 54.0527-37.9395Z"/>
  </g>
  <g id="Ultralight-M" transform="matrix(1 0 0 1 503.412 1126)">
   <path d="M9.52148-40.0879Q8.69141-39.6973 8.27637-39.0869Q7.86133-38.4766 7.8125-37.793Q7.76367-37.1094 8.05664-36.499Q8.34961-35.8887 8.93555-35.5225Q9.52148-35.1562 10.4004-35.1562L52.7832-35.1074Q53.0762-35.1074 53.2471-34.9121Q53.418-34.7168 53.418-34.4727L53.4668 7.66602Q53.4668 8.64258 53.8574 9.25293Q54.248 9.86328 54.8584 10.1318Q55.4688 10.4004 56.1768 10.3516Q56.8848 10.3027 57.4707 9.8877Q58.0566 9.47266 58.3984 8.78906L98.4375-75.9277Q99.0723-77.1973 98.9502-78.1982Q98.8281-79.1992 98.1445-79.7607Q97.4609-80.3223 96.46-80.3955Q95.459-80.4688 94.3848-79.9316ZM10.8887-37.4023Q10.5957-37.4023 10.5713-37.6709Q10.5469-37.9395 10.791-38.0371L95.5566-78.0273Q96.1426-78.2715 96.46-77.9785Q96.7773-77.6855 96.4844-77.0996L56.3965 7.51953Q56.25 7.8125 55.9814 7.73926Q55.7129 7.66602 55.7129 7.37305L55.7617-35.498Q55.7617-36.4258 55.2979-36.9385Q54.834-37.4512 53.6621-37.4512Z"/>
  </g>
  <g id="Black-S" transform="matrix(1 0 0 1 2881.69 696)">
   <path d="M13.2812-46.9238Q9.57031-45.2637 8.05664-42.2119Q6.54297-39.1602 7.03125-35.9863Q7.51953-32.8125 9.81445-30.5908Q12.1094-28.3691 16.0645-28.3691L42.7734-28.3691Q42.9199-28.3691 42.8223-28.5156Q42.7246-28.6621 42.7246-28.418L42.7246-1.70898Q42.7246 2.24609 44.9463 4.54102Q47.168 6.83594 50.3418 7.32422Q53.5156 7.8125 56.5674 6.29883Q59.6191 4.78516 61.2793 1.07422L89.1113-60.498Q90.9668-64.6484 90.5518-68.042Q90.1367-71.4355 87.9883-73.6084Q85.8398-75.7812 82.4219-76.1719Q79.0039-76.5625 74.8535-74.707ZM36.7676-41.8945Q36.5723-41.8945 36.5479-41.9922Q36.5234-42.0898 36.7188-42.1875L72.1191-58.1055Q72.3633-58.2031 72.5098-58.1543Q72.6562-58.1055 72.4609-57.7148L56.543-22.4121Q56.4941-22.2168 56.3721-22.2412Q56.25-22.2656 56.25-22.4609L56.3477-34.5703Q56.3965-38.916 54.834-40.4785Q53.2715-42.041 48.9258-41.9922Z"/>
  </g>
  <g id="Heavy-S" transform="matrix(1 0 0 1 2586.4 696)">
   <path d="M12.5488-45.9473Q9.17969-44.4336 7.83691-41.6992Q6.49414-38.9648 6.95801-36.084Q7.42188-33.2031 9.52148-31.2256Q11.6211-29.248 15.2344-29.248L41.9434-29.1992Q42.1387-29.1992 42.0898-29.2969Q42.041-29.3945 42.041-29.1016L42.041-2.44141Q42.0898 1.17188 44.0674 3.27148Q46.0449 5.37109 48.9258 5.81055Q51.8066 6.25 54.5654 4.88281Q57.3242 3.51562 58.8379 0.0976562L86.6211-61.0352Q88.2812-64.7461 87.915-67.7734Q87.5488-70.8008 85.5957-72.7539Q83.6426-74.707 80.5664-75.0488Q77.4902-75.3906 73.7793-73.7305ZM32.3242-41.1621Q32.1777-41.1621 32.1533-41.2598Q32.1289-41.3574 32.2754-41.4551L71.7773-59.2285Q71.9727-59.3262 72.0947-59.2773Q72.2168-59.2285 72.0703-58.9355L54.248-19.5312Q54.1992-19.3359 54.1016-19.3604Q54.0039-19.3848 54.0039-19.5801L54.1016-34.8633Q54.1504-38.5254 52.7344-39.9414Q51.3184-41.3574 47.7051-41.3086Z"/>
  </g>
  <g id="Bold-S" transform="matrix(1 0 0 1 2291.27 696)">
   <path d="M11.7188-44.873Q8.78906-43.5059 7.59277-41.1133Q6.39648-38.7207 6.83594-36.2061Q7.27539-33.6914 9.17969-31.958Q11.084-30.2246 14.2578-30.2246L41.0156-30.1758Q41.2598-30.1758 41.2598-30.1758Q41.2598-30.1758 41.2598-29.8828L41.3086-3.22266Q41.3574 0 43.0908 1.87988Q44.8242 3.75977 47.3389 4.15039Q49.8535 4.54102 52.2949 3.2959Q54.7363 2.05078 56.1035-0.976562L83.8379-61.6211Q85.3027-64.8438 84.9609-67.5049Q84.6191-70.166 82.9102-71.8506Q81.2012-73.5352 78.4912-73.8281Q75.7812-74.1211 72.5586-72.6562ZM27.3926-40.3809Q27.2461-40.3809 27.2217-40.4541Q27.1973-40.5273 27.3438-40.625L71.3867-60.5469Q71.582-60.5957 71.6797-60.5713Q71.7773-60.5469 71.6309-60.2539L51.6602-16.3086Q51.6113-16.1621 51.5381-16.1865Q51.4648-16.2109 51.4648-16.3574L51.6113-35.2539Q51.6113-38.0859 50.3906-39.3311Q49.1699-40.5762 46.2891-40.5273Z"/>
  </g>
  <g id="Semibold-S" transform="matrix(1 0 0 1 1995.66 696)">
   <path d="M11.1328-44.0918Q8.44727-42.8711 7.39746-40.6982Q6.34766-38.5254 6.7627-36.2793Q7.17773-34.0332 8.93555-32.4707Q10.6934-30.9082 13.623-30.8594L40.332-30.8105Q40.6738-30.8105 40.6982-30.7617Q40.7227-30.7129 40.7227-30.4199L40.7715-3.75977Q40.8203-0.830078 42.4072 0.90332Q43.9941 2.63672 46.2646 3.00293Q48.5352 3.36914 50.7568 2.22168Q52.9785 1.07422 54.1992-1.70898L81.8848-62.0117Q83.252-64.8926 82.9346-67.2852Q82.6172-69.6777 81.0547-71.1914Q79.4922-72.7051 77.0508-72.9492Q74.6094-73.1934 71.6797-71.875ZM23.9258-39.8438Q23.8281-39.8438 23.8037-39.8926Q23.7793-39.9414 23.9258-40.0391L71.1426-61.4258Q71.2402-61.4746 71.3379-61.4502Q71.4355-61.4258 71.2891-61.1816L49.8535-14.0625Q49.8047-13.9648 49.7559-13.9648Q49.707-13.9648 49.707-14.1113L49.8535-35.4492Q49.8535-37.793 48.7549-38.8916Q47.6562-39.9902 45.3125-39.9902Z"/>
  </g>
  <g id="Medium-S" transform="matrix(1 0 0 1 1699.78 696)">
   <path d="M10.7422-43.5059Q8.25195-42.3828 7.27539-40.3809Q6.29883-38.3789 6.71387-36.3281Q7.12891-34.2773 8.76465-32.8369Q10.4004-31.3965 13.0859-31.3965L39.8438-31.2988Q40.1855-31.2988 40.2588-31.2256Q40.332-31.1523 40.332-30.8105L40.3809-4.19922Q40.4297-1.41602 41.8701 0.195312Q43.3105 1.80664 45.4102 2.12402Q47.5098 2.44141 49.5605 1.36719Q51.6113 0.292969 52.7832-2.29492L80.4199-62.3047Q81.6895-64.9902 81.3965-67.1631Q81.1035-69.3359 79.6631-70.7031Q78.2227-72.0703 75.9766-72.29Q73.7305-72.5098 71.0449-71.2891ZM21.3379-39.4043Q21.2891-39.4043 21.2646-39.4775Q21.2402-39.5508 21.3379-39.5996L70.8984-62.0605Q71.0449-62.1094 71.1182-62.085Q71.1914-62.0605 71.0449-61.8652L48.4863-12.4023Q48.4375-12.3047 48.3887-12.3047Q48.3398-12.3047 48.3398-12.4023L48.5352-35.6445Q48.5352-37.5488 47.5098-38.5742Q46.4844-39.5996 44.5801-39.5996Z"/>
  </g>
  <g id="Regular-S" transform="matrix(1 0 0 1 1404.14 696)">
   <path d="M10.1562-42.7734Q7.95898-41.748 7.10449-39.9902Q6.25-38.2324 6.64062-36.4014Q7.03125-34.5703 8.52051-33.3252Q10.0098-32.0801 12.4512-32.0312L39.209-31.9336Q39.5996-31.9336 39.6973-31.8115Q39.7949-31.6895 39.7949-31.3477L39.8926-4.73633Q39.9414-2.24609 41.2109-0.78125Q42.4805 0.683594 44.3359 0.976562Q46.1914 1.26953 48.0225 0.292969Q49.8535-0.683594 50.9277-3.02734L78.5156-62.6953Q79.6387-65.0391 79.3701-66.9434Q79.1016-68.8477 77.832-70.0439Q76.5625-71.2402 74.5605-71.4355Q72.5586-71.6309 70.2148-70.5566ZM17.9688-38.8672Q17.9199-38.8672 17.8955-38.916Q17.8711-38.9648 17.9688-39.0137L70.6543-62.9395Q70.752-62.9883 70.8008-62.9639Q70.8496-62.9395 70.752-62.793L46.7285-10.2051Q46.6797-10.1074 46.6553-10.1074Q46.6309-10.1074 46.6309-10.2051L46.8262-35.8887Q46.8262-37.2559 45.9229-38.1592Q45.0195-39.0625 43.6523-39.0625Z"/>
  </g>
  <g id="Light-S" transform="matrix(1 0 0 1 1107.92 696)">
   <path d="M9.32617-41.6016Q7.56836-40.7715 6.86035-39.3555Q6.15234-37.9395 6.46973-36.499Q6.78711-35.0586 7.9834-34.0576Q9.17969-33.0566 11.084-33.0078L39.8926-32.9102Q40.1855-32.9102 40.3076-32.7881Q40.4297-32.666 40.4297-32.373L40.5273-3.75977Q40.5273-1.75781 41.5527-0.585938Q42.5781 0.585938 44.0674 0.805664Q45.5566 1.02539 47.0215 0.268555Q48.4863-0.488281 49.3164-2.29492L78.0762-64.0625Q79.0039-66.0156 78.7842-67.5537Q78.5645-69.0918 77.5391-70.0684Q76.5137-71.0449 74.8779-71.1914Q73.2422-71.3379 71.3867-70.459ZM15.0391-38.2812Q14.8926-38.2812 14.8926-38.3789Q14.8926-38.4766 14.9902-38.5254L71.9727-64.7461Q72.168-64.8438 72.29-64.7461Q72.4121-64.6484 72.2656-64.4043L45.9473-7.56836Q45.8984-7.42188 45.8008-7.44629Q45.7031-7.4707 45.7031-7.56836L45.8496-35.7422Q45.8496-36.9141 45.1172-37.6709Q44.3848-38.4277 43.1152-38.4277Z"/>
  </g>
  <g id="Thin-S" transform="matrix(1 0 0 1 811.867 696)">
   <path d="M8.20312-40.0879Q7.03125-39.502 6.54297-38.5498Q6.05469-37.5977 6.25-36.6211Q6.44531-35.6445 7.25098-34.9609Q8.05664-34.2773 9.32617-34.2773L40.7715-34.2285Q41.0156-34.2285 41.1377-34.1064Q41.2598-33.9844 41.2598-33.6914L41.3574-2.49023Q41.3574-1.07422 42.041-0.317383Q42.7246 0.439453 43.7256 0.585938Q44.7266 0.732422 45.6787 0.244141Q46.6309-0.244141 47.2168-1.36719L77.4902-65.918Q78.1738-67.2363 78.0273-68.335Q77.8809-69.4336 77.1484-70.0928Q76.416-70.752 75.293-70.8496Q74.1699-70.9473 72.9004-70.3613ZM11.1328-37.4512Q10.9375-37.4512 10.9131-37.6221Q10.8887-37.793 11.084-37.8418L73.7305-67.1387Q74.0723-67.334 74.2676-67.1387Q74.4629-66.9434 74.2676-66.6016L44.9219-4.05273Q44.8242-3.90625 44.6533-3.93066Q44.4824-3.95508 44.4824-4.10156L44.5801-35.5957Q44.5801-36.4746 44.0674-37.0117Q43.5547-37.5488 42.4805-37.5488Z"/>
  </g>
  <g id="Ultralight-S" transform="matrix(1 0 0 1 515.473 696)">
   <path d="M7.66602-39.2578Q6.73828-38.8184 6.37207-38.1104Q6.00586-37.4023 6.15234-36.6943Q6.29883-35.9863 6.88477-35.4736Q7.4707-34.9609 8.39844-34.9609L41.2109-34.8633Q41.4062-34.8633 41.5527-34.7412Q41.6992-34.6191 41.6992-34.375L41.748-1.80664Q41.748-0.732422 42.2852-0.195312Q42.8223 0.341797 43.5547 0.463867Q44.2871 0.585938 44.9951 0.244141Q45.7031-0.0976562 46.0938-0.878906L77.1973-66.8457Q77.7344-67.9199 77.6123-68.7744Q77.4902-69.6289 76.9287-70.1172Q76.3672-70.6055 75.5127-70.6543Q74.6582-70.7031 73.7305-70.2637ZM9.17969-37.0605Q8.88672-37.0605 8.88672-37.2559Q8.88672-37.4512 9.08203-37.5L74.6094-68.4082Q75-68.5547 75.2686-68.335Q75.5371-68.1152 75.293-67.6758L44.3848-2.24609Q44.2871-2.05078 44.0674-2.09961Q43.8477-2.14844 43.8477-2.34375L43.8965-35.498Q43.8965-36.2793 43.5059-36.6943Q43.1152-37.1094 42.0898-37.1094Z"/>
  </g>
 </g>
</svg>
